<?xml version="1.0" encoding="UTF-8"?>
<svg width="24px" height="24px" viewBox="0 0 24 24" version="1.1" xmlns="http://www.w3.org/2000/svg" xmlns:xlink="http://www.w3.org/1999/xlink">
    <!-- Generator: Sketch 53.2 (72643) - https://sketchapp.com -->
    <title>icon/hardware/phone_iphone_24px_rounded</title>
    <desc>Created with Sketch.</desc>
    <defs>
        <path d="M16,1 L8,1 C6.62,1 5.5,2.12 5.5,3.5 L5.5,20.5 C5.5,21.88 6.62,23 8,23 L16,23 C17.38,23 18.5,21.88 18.5,20.5 L18.5,3.5 C18.5,2.12 17.38,1 16,1 Z M12,22 C11.17,22 10.5,21.33 10.5,20.5 C10.5,19.67 11.17,19 12,19 C12.83,19 13.5,19.67 13.5,20.5 C13.5,21.33 12.83,22 12,22 Z M16.5,18 L7.5,18 L7.5,4 L16.5,4 L16.5,18 Z" id="path-1"></path>
    </defs>
    <g id="icon/hardware/phone_iphone_24px" stroke="none" stroke-width="1" fill="none" fill-rule="evenodd">
        <mask id="mask-2" fill="white">
            <use xlink:href="#path-1"></use>
        </mask>
        <use fill-opacity="0.88" fill="#000000" xlink:href="#path-1"></use>
    </g>
</svg>