<?xml version="1.0" encoding="UTF-8"?>
<svg width="24px" height="24px" viewBox="0 0 24 24" version="1.1" xmlns="http://www.w3.org/2000/svg" xmlns:xlink="http://www.w3.org/1999/xlink">
    <!-- Generator: Sketch 53.2 (72643) - https://sketchapp.com -->
    <title>icon/action/list_24px_rounded</title>
    <desc>Created with Sketch.</desc>
    <g id="icon/action/list_24px" stroke="none" stroke-width="1" fill="none" fill-rule="evenodd" fill-opacity="0.88">
        <path d="M4,13 C3.45,13 3,12.55 3,12 C3,11.45 3.45,11 4,11 C4.55,11 5,11.45 5,12 C5,12.55 4.55,13 4,13 Z M4,17 C3.45,17 3,16.55 3,16 C3,15.45 3.45,15 4,15 C4.55,15 5,15.45 5,16 C5,16.55 4.55,17 4,17 Z M4,9 C3.45,9 3,8.55 3,8 C3,7.45 3.45,7 4,7 C4.55,7 5,7.45 5,8 C5,8.55 4.55,9 4,9 Z M8,13 C7.45,13 7,12.55 7,12 C7,11.45 7.45,11 8,11 L20,11 C20.55,11 21,11.45 21,12 C21,12.55 20.55,13 20,13 L8,13 Z M8,17 C7.45,17 7,16.55 7,16 C7,15.45 7.45,15 8,15 L20,15 C20.55,15 21,15.45 21,16 C21,16.55 20.55,17 20,17 L8,17 Z M7,8 C7,7.45 7.45,7 8,7 L20,7 C20.55,7 21,7.45 21,8 C21,8.55 20.55,9 20,9 L8,9 C7.45,9 7,8.55 7,8 Z" fill="#000000"></path>
    </g>
</svg>