<?xml version="1.0" encoding="UTF-8"?>
<svg width="24px" height="24px" viewBox="0 0 24 24" version="1.1" xmlns="http://www.w3.org/2000/svg" xmlns:xlink="http://www.w3.org/1999/xlink">
    <!-- Generator: Sketch 53.2 (72643) - https://sketchapp.com -->
    <title>icon/image/panorama_24px_rounded</title>
    <desc>Created with Sketch.</desc>
    <defs>
        <path d="M23,18 L23,6 C23,4.9 22.1,4 21,4 L3,4 C1.9,4 1,4.9 1,6 L1,18 C1,19.1 1.9,20 3,20 L21,20 C22.1,20 23,19.1 23,18 Z M8.9,12.98 L11,15.51 L14.1,11.52 C14.3,11.26 14.7,11.26 14.9,11.53 L18.41,16.21 C18.66,16.54 18.42,17.01 18.01,17.01 L6.02,17.01 C5.6,17.01 5.37,16.53 5.63,16.2 L8.12,13 C8.31,12.74 8.69,12.73 8.9,12.98 Z" id="path-1"></path>
    </defs>
    <g id="icon/image/panorama_24px" stroke="none" stroke-width="1" fill="none" fill-rule="evenodd">
        <mask id="mask-2" fill="white">
            <use xlink:href="#path-1"></use>
        </mask>
        <use fill-opacity="0.88" fill="#000000" xlink:href="#path-1"></use>
    </g>
</svg>