<?xml version="1.0" encoding="UTF-8"?>
<svg width="24px" height="24px" viewBox="0 0 24 24" version="1.1" xmlns="http://www.w3.org/2000/svg" xmlns:xlink="http://www.w3.org/1999/xlink">
    <!-- Generator: Sketch 53.2 (72643) - https://sketchapp.com -->
    <title>icon/image/crop_square_24px_rounded</title>
    <desc>Created with Sketch.</desc>
    <defs>
        <path d="M18,4 L6,4 C4.9,4 4,4.9 4,6 L4,18 C4,19.1 4.9,20 6,20 L18,20 C19.1,20 20,19.1 20,18 L20,6 C20,4.9 19.1,4 18,4 Z M17,18 L7,18 C6.45,18 6,17.55 6,17 L6,7 C6,6.45 6.45,6 7,6 L17,6 C17.55,6 18,6.45 18,7 L18,17 C18,17.55 17.55,18 17,18 Z" id="path-1"></path>
    </defs>
    <g id="icon/image/crop_square_24px" stroke="none" stroke-width="1" fill="none" fill-rule="evenodd">
        <mask id="mask-2" fill="white">
            <use xlink:href="#path-1"></use>
        </mask>
        <use fill-opacity="0.88" fill="#000000" xlink:href="#path-1"></use>
    </g>
</svg>