<?xml version="1.0" encoding="UTF-8"?>
<svg width="24px" height="24px" viewBox="0 0 24 24" version="1.1" xmlns="http://www.w3.org/2000/svg" xmlns:xlink="http://www.w3.org/1999/xlink">
    <!-- Generator: Sketch 53.2 (72643) - https://sketchapp.com -->
    <title>icon/action/call for free_24px_rounded</title>
    <desc>Created with Sketch.</desc>
    <g id="icon/action/call-for-free_24px" stroke="none" stroke-width="1" fill="none" fill-rule="evenodd" fill-opacity="0.88">
        <path d="M10.5286934,9.19558871 C10.5682429,7.96117416 10.7955569,6.81361043 11.1683978,5.84805583 L13.9215073,5.84805583 L13.9215073,9.19558871 L10.5286934,9.19558871 Z M14.6894598,2.95176963 C15.6409529,3.12093993 16.4864685,3.91656901 17.0981426,5.09283126 L14.6894598,5.09283126 L14.6894598,2.95176963 Z M11.1680138,13.2979685 C10.7955569,12.3327915 10.5682429,11.1852278 10.5286934,9.95081327 L13.9215073,9.95081327 L13.9215073,13.2979685 L11.1680138,13.2979685 Z M13.9215073,2.95176963 L13.9215073,5.09283126 L11.5128245,5.09283126 C12.1244986,3.91619139 12.9700142,3.12093993 13.9215073,2.95176963 Z M18.2581348,13.2979685 C18.6048654,12.3105124 18.8133644,11.1746547 18.8498422,9.95081327 L21.8218182,9.95081327 C21.7592301,11.1667248 21.3998283,12.3048482 20.8096568,13.2979685 L18.2581348,13.2979685 Z M18.2581348,5.84805583 L20.8088889,5.84805583 C21.3994443,6.84155374 21.7588461,7.97929955 21.8214342,9.19558871 L18.8498422,9.19558871 C18.8133644,7.9717473 18.6048654,6.83551195 18.2581348,5.84805583 Z M14.6894598,2.19314655 L14.6894598,2.18181818 C16.9741183,2.29547948 18.9892256,3.41019094 20.2939768,5.09283126 L17.9517218,5.09283126 C17.1983604,3.45890292 16.0372163,2.36835865 14.6894598,2.19314655 Z M13.9215073,16.1942547 C12.9696303,16.0254621 12.1244986,15.229833 11.5124405,14.0531931 L13.9215073,14.0531931 L13.9215073,16.1942547 Z M13.9215073,16.9532554 L13.9215073,16.9645838 C11.6368488,16.8505449 9.62174154,15.7358334 8.31699033,14.0531931 L10.6588613,14.0531931 C11.4122227,15.6874991 12.5737508,16.7776657 13.9215073,16.9532554 Z M17.0981426,14.0531931 C16.4864685,15.229833 15.6413368,16.0254621 14.6894598,16.1942547 L14.6894598,14.0531931 L17.0981426,14.0531931 Z M17.9521058,14.0531931 L20.2939768,14.0531931 C18.9892256,15.7358334 16.9737343,16.8505449 14.6894598,16.9645838 L14.6894598,16.9532554 C16.0372163,16.7776657 17.1987444,15.6874991 17.9521058,14.0531931 Z M9.76112491,9.95081327 C9.79721868,11.1746547 10.0061017,12.3105124 10.3528323,13.2979685 L7.80169423,13.2979685 C7.21113879,12.3048482 6.852505,11.1671024 6.7895329,9.95081327 L9.76112491,9.95081327 Z M7.80169423,5.84805583 L10.3528323,5.84805583 C10.0061017,6.83551195 9.79721868,7.9717473 9.76112491,9.19558871 L6.7895329,9.19558871 C6.85212102,7.97929955 7.21113879,6.84117613 7.80169423,5.84805583 Z M18.0822737,9.95081327 C18.0423402,11.1852278 17.8154102,12.3327915 17.4425693,13.2979685 L14.6894598,13.2979685 L14.6894598,9.95081327 L18.0822737,9.95081327 Z M10.6588613,5.09283126 L8.31699033,5.09283126 C9.62212552,3.41056855 11.6372328,2.29585709 13.9215073,2.18181818 L13.9215073,2.19314655 C12.5737508,2.36835865 11.4122227,3.45852531 10.6588613,5.09283126 Z M17.4425693,5.84805583 C17.8154102,6.81361043 18.0423402,7.96117416 18.0822737,9.19558871 L14.6894598,9.19558871 L14.6894598,5.84805583 L17.4425693,5.84805583 Z M12.6144552,19.8802913 C12.8820866,19.9943303 13.005727,20.2998186 12.8901501,20.5637696 L12.4704641,21.5176182 C12.3648707,21.757402 12.1041508,21.8453857 11.8480387,21.8110229 C9.32493088,21.4707943 6.99342723,20.766925 5.31813896,19.119025 C5.252863,19.0548309 4.99175916,18.7976769 4.92609923,18.7334828 C3.25081095,17.0859605 2.53507927,14.7930987 2.18911669,12.3118084 C2.15417485,12.059941 2.24325734,11.8035422 2.48746622,11.6996989 L3.45700619,11.2873463 C3.72502159,11.1733073 4.03604234,11.2948985 4.15200316,11.5580943 L5.20025826,13.9423382 C5.31621908,14.2059116 5.19296271,14.5113999 4.9249473,14.6258164 L4.59434377,14.7662882 C4.93416273,15.8900624 5.53508552,16.9039513 6.32722848,17.7411178 C7.1781198,18.5201319 8.20909596,19.1107175 9.35219319,19.445282 L9.49503235,19.1201578 C9.61137714,18.8565845 9.92239789,18.7353709 10.1900293,18.8494098 L12.6144552,19.8802913 Z" id="INTERNATIONAL-CALL" fill="#000000"></path>
    </g>
</svg>