<?xml version="1.0" encoding="UTF-8"?>
<svg width="24px" height="24px" viewBox="0 0 24 24" version="1.1" xmlns="http://www.w3.org/2000/svg" xmlns:xlink="http://www.w3.org/1999/xlink">
    <!-- Generator: Sketch 53.2 (72643) - https://sketchapp.com -->
    <title>icon/action/male_24px_rounded</title>
    <desc>Created with Sketch.</desc>
    <defs>
        <path d="M12.7164792,4.72835208 C12.7164792,5.13060983 13.0425735,5.45670416 13.4448313,5.45670416 L17.5138916,5.45670416 L14.2314515,8.7391442 C11.6095066,6.66263019 7.82301027,6.99165833 5.5985375,9.48930249 C3.37406473,11.9869466 3.48386295,15.7861253 5.84886881,18.1511312 C8.21387467,20.516137 12.0130534,20.6259353 14.5106975,18.4014625 C17.0083417,16.1769897 17.3373698,12.3904934 15.2608558,9.76854847 L18.5432958,6.48610843 L18.5432958,10.5551687 C18.5432958,10.9574265 18.8693902,11.2835208 19.2716479,11.2835208 C19.6739057,11.2835208 20,10.9574265 20,10.5551687 L20,4 L13.4448313,4 C13.0425735,4 12.7164792,4.32609433 12.7164792,4.72835208 L12.7164792,4.72835208 Z M10.3202009,18.5039177 C7.65216535,18.4918519 5.49844228,16.3203878 5.50826387,13.6523431 C5.51808545,10.9842984 7.68773708,8.82874946 10.3557891,8.83632673 C13.0238412,8.84390401 15.1812144,11.0117417 15.1758814,13.6797991 C15.1720246,14.9635222 14.6581991,16.1930984 13.7475109,17.0978672 C12.8368226,18.002636 11.6039218,18.5084324 10.3202009,18.5039177 Z" id="path-1"></path>
    </defs>
    <g id="icon/action/male_24px" stroke="none" stroke-width="1" fill="none" fill-rule="evenodd">
        <mask id="mask-2" fill="white">
            <use xlink:href="#path-1"></use>
        </mask>
        <use fill-opacity="0.88" fill="#000000" xlink:href="#path-1"></use>
    </g>
</svg>