<?xml version="1.0" encoding="UTF-8"?>
<svg width="24px" height="24px" viewBox="0 0 24 24" version="1.1" xmlns="http://www.w3.org/2000/svg" xmlns:xlink="http://www.w3.org/1999/xlink">
    <!-- Generator: Sketch 53.2 (72643) - https://sketchapp.com -->
    <title>icon/alert/warning_amber_24px</title>
    <desc>Created with Sketch.</desc>
    <defs>
        <path d="M12,5.49375 L19.53,18.50375 L4.47,18.50375 L12,5.49375 L12,5.49375 Z M2.74,17.50375 C1.97,18.83375 2.93,20.50375 4.47,20.50375 L19.53,20.50375 C21.07,20.50375 22.03,18.83375 21.26,17.50375 L13.73,4.49375 C12.96,3.16375 11.04,3.16375 10.27,4.49375 L2.74,17.50375 Z M11,10.50375 L11,12.50375 C11,13.05375 11.45,13.50375 12,13.50375 C12.55,13.50375 13,13.05375 13,12.50375 L13,10.50375 C13,9.95375 12.55,9.50375 12,9.50375 C11.45,9.50375 11,9.95375 11,10.50375 Z M11,15.50375 L13,15.50375 L13,17.50375 L11,17.50375 L11,15.50375 Z" id="path-1"></path>
    </defs>
    <g id="icon/alert/warning_amber_24px" stroke="none" stroke-width="1" fill="none" fill-rule="evenodd">
        <mask id="mask-2" fill="white">
            <use xlink:href="#path-1"></use>
        </mask>
        <use fill-opacity="0.88" fill="#000000" xlink:href="#path-1"></use>
    </g>
</svg>