<?xml version="1.0" encoding="UTF-8"?>
<svg width="24px" height="24px" viewBox="0 0 24 24" version="1.1" xmlns="http://www.w3.org/2000/svg" xmlns:xlink="http://www.w3.org/1999/xlink">
    <!-- Generator: Sketch 53.2 (72643) - https://sketchapp.com -->
    <title>icon/editor/format_size_24px</title>
    <desc>Created with Sketch.</desc>
    <defs>
        <path d="M8.5,6 C8.5,6.83 9.17,7.5 10,7.5 L13.5,7.5 L13.5,18 C13.5,18.83 14.17,19.5 15,19.5 C15.83,19.5 16.5,18.83 16.5,18 L16.5,7.5 L20,7.5 C20.83,7.5 21.5,6.83 21.5,6 C21.5,5.17 20.83,4.5 20,4.5 L10,4.5 C9.17,4.5 8.5,5.17 8.5,6 Z M4,12.5 L5.5,12.5 L5.5,18 C5.5,18.83 6.17,19.5 7,19.5 C7.83,19.5 8.5,18.83 8.5,18 L8.5,12.5 L10,12.5 C10.83,12.5 11.5,11.83 11.5,11 C11.5,10.17 10.83,9.5 10,9.5 L4,9.5 C3.17,9.5 2.5,10.17 2.5,11 C2.5,11.83 3.17,12.5 4,12.5 Z" id="path-1"></path>
    </defs>
    <g id="icon/editor/format_size_24px" stroke="none" stroke-width="1" fill="none" fill-rule="evenodd">
        <mask id="mask-2" fill="white">
            <use xlink:href="#path-1"></use>
        </mask>
        <use fill-opacity="0.88" fill="#000000" xlink:href="#path-1"></use>
    </g>
</svg>