<?xml version="1.0" encoding="UTF-8"?>
<svg width="24px" height="24px" viewBox="0 0 24 24" version="1.1" xmlns="http://www.w3.org/2000/svg" xmlns:xlink="http://www.w3.org/1999/xlink">
    <!-- Generator: Sketch 53.2 (72643) - https://sketchapp.com -->
    <title>icon/action/female_24px</title>
    <desc>Created with Sketch.</desc>
    <defs>
        <path d="M5.19631322,13.816096 C4.91602752,13.554923 4.47925155,13.5626294 4.20835361,13.8335274 C3.93745567,14.1044253 3.92974927,14.5412013 4.19092222,14.821487 L6.19696182,16.8346402 L4.35216417,18.6794378 C4.09099122,18.9597235 4.09869763,19.3964995 4.36959556,19.6673975 C4.6404935,19.9382954 5.07726947,19.9460018 5.35755518,19.6848288 L7.20235283,17.8400312 L9.22024846,19.848442 C9.50092539,20.0991298 9.928292,20.087837 10.195338,19.822676 C10.462384,19.557515 10.476704,19.1302391 10.2280107,18.8477934 L8.21485745,16.8346402 L10.3607982,14.6886995 C12.8554631,16.6281532 16.4290733,16.2890864 18.5144733,13.9150727 C20.5998732,11.5410589 20.475472,7.95355558 18.230635,5.72969837 C15.985798,3.50584115 12.3972847,3.41513011 10.0429564,5.52272885 C7.68862815,7.63032759 7.38313055,11.2069639 9.34592233,13.6833085 L7.21183765,15.8173932 L5.19631322,13.816096 Z M10.7947287,6.74279084 C12.5729198,4.96552954 15.455106,4.96603201 17.2326772,6.7439132 C19.0102485,8.52179439 19.0102485,11.4039806 17.2326772,13.1818618 C15.455106,14.959743 12.5729198,14.9602455 10.7947287,13.1829842 C9.93749497,12.3306693 9.45549042,11.171726 9.45549042,9.96288751 C9.45549042,8.75404906 9.93749497,7.59510575 10.7947287,6.74279084 L10.7947287,6.74279084 Z" id="path-1"></path>
    </defs>
    <g id="icon/action/female_24px" stroke="none" stroke-width="1" fill="none" fill-rule="evenodd">
        <mask id="mask-2" fill="white">
            <use xlink:href="#path-1"></use>
        </mask>
        <use fill-opacity="0.88" fill="#000000" xlink:href="#path-1"></use>
    </g>
</svg>