<?xml version="1.0" encoding="UTF-8"?>
<svg width="24px" height="24px" viewBox="0 0 24 24" version="1.1" xmlns="http://www.w3.org/2000/svg" xmlns:xlink="http://www.w3.org/1999/xlink">
    <!-- Generator: Sketch 53.2 (72643) - https://sketchapp.com -->
    <title>icon/action/map_24px</title>
    <desc>Created with Sketch.</desc>
    <g id="icon/action/map_24px" stroke="none" stroke-width="1" fill="none" fill-rule="evenodd" fill-opacity="0.88">
        <path d="M14.4097562,15.5130951 L14.3719849,15.961895 C14.4476946,15.9682397 14.5252426,15.971245 14.6026236,15.9729147 L14.7871345,19.2 L8.38691167,16.6870208 L8.96818795,9.99609489 C9.04724019,10.0538645 9.12545678,10.1161422 9.2021692,10.1839297 L9.50032817,9.8469958 C9.34305934,9.70774761 9.17893821,9.58703244 9.01247726,9.48451638 L9.4194375,4.8 L14.1110958,7.38727825 L14.5765514,15.522779 C14.5207301,15.5206085 14.4655774,15.5177701 14.4097562,15.5130951 Z M9.57620494,10.5641073 C9.7104099,10.7188832 9.84244218,10.8923591 9.96862492,11.079693 L10.3426607,10.8289126 C10.2061159,10.6258841 10.0628859,10.4380493 9.91681479,10.2694154 L9.57620494,10.5641073 Z M10.2540821,11.5443545 C10.3578694,11.7293509 10.4584814,11.9267027 10.5527424,12.1314009 L10.9618753,11.9428982 C10.8624333,11.7278482 10.7566403,11.5196438 10.6468363,11.3242956 L10.2540821,11.5443545 Z M10.7685065,12.6379705 C10.8731296,12.9046124 10.9453295,13.1240034 10.9876133,13.2609141 L11.4179716,13.1285115 C11.3736823,12.9842543 11.2974713,12.7536767 11.1880015,12.4736776 L10.7685065,12.6379705 Z M11.668833,14.3857524 L12.0209747,14.1059203 C11.8922851,13.943464 11.7654338,13.7649792 11.6447663,13.5749739 L11.2648811,13.8162373 C11.3937379,14.0192658 11.5299484,14.2109408 11.668833,14.3857524 Z M12.5967358,15.2886951 L12.8609674,14.924713 C12.6955093,14.8046657 12.5327252,14.6644157 12.3777962,14.5079702 L12.0577432,14.8248684 C12.230388,14.9983443 12.4115563,15.1542889 12.5967358,15.2886951 Z M13.7790096,15.8588781 L13.8956659,15.4244371 C13.6954449,15.3708415 13.498065,15.2955407 13.30971,15.2002041 L13.1061464,15.6012522 C13.3224119,15.7109478 13.5490394,15.7976022 13.7790096,15.8588781 Z M15.0891375,15.952545 L15.0420069,15.5050808 C15.0244584,15.5065835 15.0069098,15.5074183 14.9885255,15.5094219 L14.5247413,7.38727825 L19.329212,5.13710085 L19.686869,6.97721402 C19.3220254,6.79422118 18.9102184,6.69053637 18.4750133,6.69053637 C16.9788703,6.69053637 15.7613322,7.90687104 15.7613322,9.40153514 C15.7613322,11.2862278 18.0416466,13.8633212 18.1389159,13.9720149 L18.1477738,13.9813649 C18.0752396,14.046648 17.9171351,14.1853953 17.6903404,14.3545301 L17.9602545,14.7150059 C18.1989154,14.5366881 18.3658777,14.3905943 18.4472698,14.317297 L18.4735091,14.3468497 L18.8096065,13.9736846 C18.873617,13.9028917 19.8794022,12.7768847 20.5629617,11.4717251 L21.6,16.7995548 L15.2001114,19.2 L15.0150991,15.9585558 C15.0396671,15.9565522 15.0645694,15.9550495 15.0891375,15.952545 Z M17.2407622,14.6657515 C17.0532429,14.7852979 16.8623811,14.8944925 16.6730234,14.9906639 L16.8775899,15.3917121 C17.0794822,15.2888621 17.2832131,15.172488 17.4834342,15.0449273 L17.2407622,14.6657515 Z M16.1796572,15.214396 C15.9730852,15.2962085 15.766346,15.3628273 15.5657907,15.4119148 L15.6735892,15.8488602 C15.8938658,15.7947638 16.1198249,15.7221344 16.3457839,15.6328085 L16.1796572,15.214396 Z M4.31446801,6.82510957 L9.00662773,4.80016696 L7.8805094,16.7252557 L2.4,19.087633 L4.31446801,6.82510957 Z M6.17512034,10.2079725 C6.51322325,10.2079725 6.79232945,9.95685829 6.83712015,9.63144494 C6.92920849,9.6035619 7.0206283,9.58001994 7.11004257,9.5624887 L7.0234695,9.12103518 C6.93121404,9.13890035 6.83812293,9.16294321 6.74402904,9.18999142 C6.62620277,8.99931823 6.41578677,8.87175753 6.17512034,8.87175753 C5.80609848,8.87175753 5.50660248,9.17129142 5.50660248,9.54011548 C5.50660248,9.90893955 5.80593136,10.2079725 6.17512034,10.2079725 Z M7.62212724,9.51607263 C7.82619232,9.5204137 8.02892036,9.55280477 8.22329193,9.61307887 L8.35666124,9.18314589 C8.12167721,9.11051643 7.87733394,9.07144679 7.63098511,9.0662709 L7.62212724,9.51607263 Z M16.2117461,9.40170211 C16.2117461,8.15297637 17.2255534,7.140839 18.4751804,7.140839 C19.7253088,7.140839 20.7386147,8.15297637 20.7386147,9.40170211 C20.7386147,11.1603367 18.4751804,13.672648 18.4751804,13.672648 C18.4751804,13.672648 16.2117461,11.1364608 16.2117461,9.40170211 Z M19.8986221,9.36580479 C19.8986221,8.58057185 19.2615245,7.94410407 18.4750133,7.94410407 C17.6891705,7.94410407 17.0514045,8.58057185 17.0514045,9.36580479 C17.0514045,10.1515386 17.6893377,10.7880064 18.4750133,10.7880064 C19.2613574,10.7880064 19.8986221,10.1515386 19.8986221,9.36580479 Z" id="Combined-Shape" fill="#000000"></path>
    </g>
</svg>