<?xml version="1.0" encoding="UTF-8"?>
<svg width="24px" height="24px" viewBox="0 0 24 24" version="1.1" xmlns="http://www.w3.org/2000/svg" xmlns:xlink="http://www.w3.org/1999/xlink">
    <!-- Generator: Sketch 53.2 (72643) - https://sketchapp.com -->
    <title>icon/maps/hotel_24px</title>
    <desc>Created with Sketch.</desc>
    <defs>
        <path d="M7,12.5 C8.66,12.5 10,11.16 10,9.5 C10,7.84 8.66,6.5 7,6.5 C5.34,6.5 4,7.84 4,9.5 C4,11.16 5.34,12.5 7,12.5 Z M19,6.5 L13,6.5 C11.9,6.5 11,7.4 11,8.5 L11,13.5 L3,13.5 L3,5.5 C3,4.95 2.55,4.5 2,4.5 C1.45,4.5 1,4.95 1,5.5 L1,18.5 C1,19.05 1.45,19.5 2,19.5 C2.55,19.5 3,19.05 3,18.5 L3,16.5 L21,16.5 L21,18.5 C21,19.05 21.45,19.5 22,19.5 C22.55,19.5 23,19.05 23,18.5 L23,10.5 C23,8.29 21.21,6.5 19,6.5 Z" id="path-1"></path>
    </defs>
    <g id="icon/maps/hotel_24px" stroke="none" stroke-width="1" fill="none" fill-rule="evenodd">
        <mask id="mask-2" fill="white">
            <use xlink:href="#path-1"></use>
        </mask>
        <use fill-opacity="0.88" fill="#000000" xlink:href="#path-1"></use>
    </g>
</svg>