<?xml version="1.0" encoding="UTF-8"?>
<svg width="24px" height="24px" viewBox="0 0 24 24" version="1.1" xmlns="http://www.w3.org/2000/svg" xmlns:xlink="http://www.w3.org/1999/xlink">
    <!-- Generator: Sketch 53.2 (72643) - https://sketchapp.com -->
    <title>icon/maps/local_cafe_24px</title>
    <desc>Created with Sketch.</desc>
    <defs>
        <path d="M20,3 L6,3 C4.9,3 4,3.9 4,5 L4,13 C4,15.21 5.79,17 8,17 L14,17 C16.21,17 18,15.21 18,13 L18,10 L20,10 C21.1,10 22,9.1 22,8 L22,5 C22,3.9 21.1,3 20,3 Z M20,8 L18,8 L18,5 L20,5 L20,8 Z M3,21 L19,21 C19.55,21 20,20.55 20,20 C20,19.45 19.55,19 19,19 L3,19 C2.45,19 2,19.45 2,20 C2,20.55 2.45,21 3,21 Z" id="path-1"></path>
    </defs>
    <g id="icon/maps/local_cafe_24px" stroke="none" stroke-width="1" fill="none" fill-rule="evenodd">
        <mask id="mask-2" fill="white">
            <use xlink:href="#path-1"></use>
        </mask>
        <use fill-opacity="0.88" fill="#000000" xlink:href="#path-1"></use>
    </g>
</svg>