<?xml version="1.0" encoding="UTF-8"?>
<svg width="24px" height="24px" viewBox="0 0 24 24" version="1.1" xmlns="http://www.w3.org/2000/svg" xmlns:xlink="http://www.w3.org/1999/xlink">
    <!-- Generator: Sketch 53.2 (72643) - https://sketchapp.com -->
    <title>icon/notification/airline_seat_individual_suite_24px</title>
    <desc>Created with Sketch.</desc>
    <defs>
        <path d="M7,13 C8.65,13 10,11.65 10,10 C10,8.35 8.65,7 7,7 C5.35,7 4,8.35 4,10 C4,11.65 5.35,13 7,13 Z M19,7 L13,7 C11.9,7 11,7.9 11,9 L11,14 L3,14 L3,8 C3,7.45 2.55,7 2,7 C1.45,7 1,7.45 1,8 L1,15 C1,16.1 1.9,17 3,17 L21,17 C22.1,17 23,16.1 23,15 L23,11 C23,8.79 21.21,7 19,7 Z" id="path-1"></path>
    </defs>
    <g id="icon/notification/airline_seat_individual_suite_24px" stroke="none" stroke-width="1" fill="none" fill-rule="evenodd">
        <mask id="mask-2" fill="white">
            <use xlink:href="#path-1"></use>
        </mask>
        <use fill-opacity="0.88" fill="#000000" xlink:href="#path-1"></use>
    </g>
</svg>