<?xml version="1.0" encoding="UTF-8"?>
<svg width="24px" height="24px" viewBox="0 0 24 24" version="1.1" xmlns="http://www.w3.org/2000/svg" xmlns:xlink="http://www.w3.org/1999/xlink">
    <!-- Generator: Sketch 53.2 (72643) - https://sketchapp.com -->
    <title>icon/hiInc_SignatureLogo/Secondary/Positive_Colour_rounded</title>
    <desc>Created with Sketch.</desc>
    <g id="icon/hiInc_SignatureLogo/Secondary/Positive_Colour" stroke="none" stroke-width="1" fill="none" fill-rule="evenodd">
        <g id="hiInc_SignatureLogo_Secondary_Positive_Colour" transform="translate(0.000000, 6.000000)" fill-rule="nonzero">
            <path d="M18.1718738,4.53461967 C18.4973655,4.73454545 18.7061967,4.15881262 18.7712059,3.85736549 C18.8362152,3.55591837 18.8713915,2.94723562 18.4474954,3.0696846 C18.0467532,3.18634508 17.6785158,3.42278293 17.7421892,3.87116883 C17.8058627,4.31955473 17.8966976,4.54174397 18.1718738,4.53461967 Z" id="Path" fill="#C19A53"></path>
            <path d="M8.59369202,10.1899814 C9.14493506,9.5554731 10.8841558,7.39725417 11.8993692,6.84289425 C12.3335065,6.6064564 12.7159926,6.57217069 13.1109462,6.75829314 C13.3923562,6.89187384 13.5633395,7.15903525 13.5450835,7.54107607 C13.5254917,7.96230056 13.428423,9.03851577 13.4279777,9.3283859 C13.4279777,9.47176252 13.4497959,9.58975881 13.5272727,9.58886827 C13.5891651,9.58886827 13.7761781,9.41343228 13.8946197,9.3038961 C14.9285343,8.34345083 15.8765121,7.13276438 16.8053432,5.91050093 C17.0644898,5.56987013 17.314731,5.45632653 17.5836735,5.50085343 C17.9398887,5.55962894 18.2725046,5.89046382 18.1460482,6.27784787 C17.6829685,7.6987013 17.889128,8.14797774 18.15718,8.14797774 C18.6416327,8.15465677 19.7076067,7.57179963 20.8938033,6.4412616 C21.8665545,5.5020291 22.7100213,4.43755101 23.4020037,3.27584416 C23.5093135,3.09773655 23.6117254,2.89246753 23.7893878,2.90226345 C23.9358813,2.91027829 24.0120223,3.04875696 23.9514657,3.41343228 C23.7635622,4.56089054 22.869462,5.96170686 21.7789981,7.09402597 C20.6404453,8.27532468 19.287718,9.16408163 18.3014471,9.16408163 C17.2078664,9.16408163 16.9656401,8.08163265 16.6949165,8.08163265 C16.6218924,8.08163265 16.5248237,8.16089054 16.3587384,8.36037106 C15.9615584,8.83725417 14.4716883,10.7737291 13.4965492,10.7777365 C12.6251577,10.7812987 12.023154,10.1641558 12.0342857,9.28519481 C12.0405195,8.97617811 12.1037477,8.55940631 12.1144341,8.24949907 C12.1171058,8.17647495 12.1064193,8.13818182 12.0819295,8.1283859 C12.0574397,8.11858998 12.0200371,8.13729128 11.9679406,8.17959184 C11.1548794,8.83725417 8.66270872,11.7341744 8.17157699,12.369128 C8.02018553,12.5646011 7.72630798,12.738256 7.41061224,12.6385158 C7.12608534,12.549462 7.03168831,12.2649351 7.01298701,11.9799629 C6.97335807,11.385974 7.11940631,10.6201113 7.15146568,10.4411132 C7.20178108,10.161039 7.25476809,9.92148423 7.22048237,9.92059369 C7.18619666,9.91970315 7.05662338,10.0141002 6.9657885,10.0737662 C6.38248609,10.4575881 4.36808905,11.8993692 2.19072356,11.8499443 C1.24764378,11.8459369 0.57038961,11.6099443 0.128237477,11.2314657 C0.00489795918,11.1259369 -0.0182560297,11.0172913 0.0200371058,10.9429314 C0.0583302412,10.8685714 0.157625232,10.8289425 0.279628942,10.8623377 C0.649202226,10.9629685 1.46493506,11.1780334 2.92764378,10.8178108 C4.94204082,10.3217811 7.09358071,8.65825603 7.58204082,8.30693878 C7.65565884,8.24957528 7.70952114,8.1706499 7.7361039,8.08118738 C8.007718,7.15502783 8.53758813,5.13306122 9.5870872,3.27628942 C10.7176252,1.27970315 12.0765863,-0.123784787 13.2244898,0.0338404453 C14.1444156,0.160296846 14.2272356,1.13766234 14.1230427,1.62211503 C13.8857143,2.72727273 13.082449,3.98738404 12.1562894,5.14597403 C10.8400742,6.79346939 9.27584416,8.23480519 8.73439703,8.73929499 C8.71082422,8.75945516 8.69132703,8.78394 8.67695733,8.81142857 C8.66716141,8.83769944 8.64979592,8.92274583 8.64044527,8.97128015 C8.55940631,9.39517625 8.49261596,9.70419295 8.40935065,10.1418924 C8.39955473,10.1930983 8.37907236,10.296846 8.42938776,10.3164378 C8.47970315,10.3360297 8.55317254,10.2385158 8.59369202,10.1899814 Z M9.25536178,6.75339518 C9.27584416,6.75962894 9.35109462,6.67146568 9.56927644,6.45996289 C10.1868646,5.8606308 11.9737291,3.73714286 12.6861596,2.07539889 C12.8037106,1.80200371 13.1510204,1.05662338 12.8932096,1.03257885 C12.726679,1.0174397 12.3499814,1.20222635 11.783154,1.81714286 C10.8035622,2.88089054 9.78434137,5.23057514 9.38671614,6.35176252 C9.32749536,6.52363636 9.23666048,6.74671614 9.25714286,6.75339518 L9.25536178,6.75339518 Z" id="Shape" fill="#002855"></path>
        </g>
    </g>
</svg>