<?xml version="1.0" encoding="UTF-8"?>
<svg width="18px" height="18px" viewBox="0 0 18 18" version="1.1" xmlns="http://www.w3.org/2000/svg" xmlns:xlink="http://www.w3.org/1999/xlink">
    <!-- Generator: Sketch 53.2 (72643) - https://sketchapp.com -->
    <title>INTERNATIONAL CALL</title>
    <desc>Created with Sketch.</desc>
    <g id="Rounded-icons" stroke="none" stroke-width="1" fill="none" fill-rule="evenodd" fill-opacity="0.88">
        <g id="icon/homepage/call_home_free-" transform="translate(-3.000000, -3.000000)" fill="#000000">
            <path d="M10.724892,9.57210689 C10.7591253,8.50342393 10.9558838,7.50993126 11.2786076,6.6740113 L13.6616454,6.6740113 L13.6616454,9.57210689 L10.724892,9.57210689 Z M14.32637,4.16657833 C15.1499638,4.31303596 15.8818256,5.00184446 16.4112788,6.02018262 L14.32637,6.02018262 L14.32637,4.16657833 Z M11.2782752,13.1237042 C10.9558838,12.2881112 10.7591253,11.2946185 10.724892,10.2259356 L13.6616454,10.2259356 L13.6616454,13.1237042 L11.2782752,13.1237042 Z M13.6616454,4.16657833 L13.6616454,6.02018262 L11.5767366,6.02018262 C12.1061898,5.00151755 12.8380516,4.31303596 13.6616454,4.16657833 Z M17.4153454,13.1237042 C17.7154685,12.2688233 17.8959413,11.2854649 17.9275157,10.2259356 L20.5,10.2259356 C20.4458249,11.2785997 20.1347338,12.2639195 19.6238929,13.1237042 L17.4153454,13.1237042 Z M17.4153454,6.6740113 L19.6232282,6.6740113 C20.1344015,7.53412292 20.4454926,8.51911581 20.4996676,9.57210689 L17.9275157,9.57210689 C17.8959413,8.51257753 17.7154685,7.52889229 17.4153454,6.6740113 Z M14.32637,3.50980743 L14.32637,3.5 C16.3039258,3.59840122 18.0481632,4.56345234 19.1775304,6.02018262 L17.1501202,6.02018262 C16.4980254,4.60562429 15.4929617,3.66149568 14.32637,3.50980743 Z M13.6616454,15.6311372 C12.8377192,15.4850065 12.1061898,14.796198 11.5764042,13.7775329 L13.6616454,13.7775329 L13.6616454,15.6311372 Z M13.6616454,16.288235 L13.6616454,16.2980425 C11.6840896,16.1993143 9.9398522,15.2342632 8.81048505,13.7775329 L10.8375628,13.7775329 C11.4896577,15.1924182 12.4950537,16.1362199 13.6616454,16.288235 Z M16.4112788,13.7775329 C15.8818256,14.796198 15.1502962,15.4850065 14.32637,15.6311372 L14.32637,13.7775329 L16.4112788,13.7775329 Z M17.1504526,13.7775329 L19.1775304,13.7775329 C18.0481632,15.2342632 16.3035934,16.1993143 14.32637,16.2980425 L14.32637,16.288235 C15.4929617,16.1362199 16.4983577,15.1924182 17.1504526,13.7775329 Z M10.0604997,10.2259356 C10.0917418,11.2854649 10.2725469,12.2688233 10.57267,13.1237042 L8.36445483,13.1237042 C7.85328159,12.2639195 7.54285519,11.2789266 7.48834777,10.2259356 L10.0604997,10.2259356 Z M8.36445483,6.6740113 L10.57267,6.6740113 C10.2725469,7.52889229 10.0917418,8.51257753 10.0604997,9.57210689 L7.48834777,9.57210689 C7.54252283,8.51911581 7.85328159,7.533796 8.36445483,6.6740113 Z M17.2631234,10.2259356 C17.2285577,11.2946185 17.0321316,12.2881112 16.7094078,13.1237042 L14.32637,13.1237042 L14.32637,10.2259356 L17.2631234,10.2259356 Z M10.8375628,6.02018262 L8.81048505,6.02018262 C9.94018456,4.56377925 11.684422,3.59872813 13.6616454,3.5 L13.6616454,3.50980743 C12.4950537,3.66149568 11.4896577,4.60529737 10.8375628,6.02018262 Z M16.7094078,6.6740113 C17.0321316,7.50993126 17.2285577,8.50342393 17.2631234,9.57210689 L14.32637,9.57210689 L14.32637,6.6740113 L16.7094078,6.6740113 Z M12.5302866,18.8222893 C12.7619432,18.9210174 12.8689638,19.1854911 12.7689228,19.4140042 L12.4056508,20.2397898 C12.3142511,20.4473804 12.0885771,20.5235515 11.8668915,20.4938023 C9.68293869,20.1992525 7.66483472,19.5898841 6.21473794,18.16323 C6.15823635,18.1076545 5.93222997,17.8850259 5.87539602,17.8294504 C4.42529924,16.4031232 3.80577589,14.4180993 3.50631744,12.2699452 C3.47607247,12.0518934 3.55318053,11.8299185 3.76456296,11.7400171 L4.60377781,11.3830266 C4.8357667,11.2842985 5.10498018,11.3895649 5.20535359,11.6174242 L6.11270271,13.6815613 C6.21307613,13.9097475 6.10638783,14.1742212 5.87439893,14.2732763 L5.58823498,14.3948884 C5.88237563,15.3677855 6.40252265,16.2455505 7.0881861,16.9703196 C7.82470099,17.6447438 8.7170938,18.1560379 9.70653641,18.445684 L9.83017519,18.1642107 C9.93088097,17.9360245 10.2000944,17.831085 10.431751,17.9298131 L12.5302866,18.8222893 Z" id="INTERNATIONAL-CALL"></path>
        </g>
    </g>
</svg>