<?xml version="1.0" encoding="UTF-8"?>
<svg width="18px" height="20px" viewBox="0 0 18 20" version="1.1" xmlns="http://www.w3.org/2000/svg" xmlns:xlink="http://www.w3.org/1999/xlink">
    <!-- Generator: Sketch 53.2 (72643) - https://sketchapp.com -->
    <title>Combined Shape</title>
    <desc>Created with Sketch.</desc>
    <g id="Rounded-icons" stroke="none" stroke-width="1" fill="none" fill-rule="evenodd" fill-opacity="0.88">
        <g id="icon/homepage/concierge_chat" transform="translate(-3.000000, -2.000000)" fill="#000000">
            <path d="M12.000625,2.91 C7.369,2.91 3.61,6.44901918 3.61,10.808192 C3.61,14.2348614 5.825125,17.1559566 9.3715625,18.3356296 C10.63575,18.7625589 11.1839375,20.0208768 10.837125,21.144375 C12.5711875,20.4253362 16.162375,18.4592144 18.399875,15.9201086 C19.5298125,14.6280857 20.39125,12.9091335 20.39125,10.819427 C20.39125,6.44901918 16.63225,2.91 12.000625,2.91 Z M9.226125,13.4821176 L8.2528125,13.4821176 L6.4180625,9.20158965 L7.480875,9.20158965 L8.778625,12.2575046 L10.09875,9.20158965 L11.08325,9.20158965 L9.226125,13.4821176 Z M12.6606875,13.4821176 L11.6761875,13.4821176 L11.6761875,9.20158965 L12.6606875,9.20158965 L12.6606875,13.4821176 Z M17.3818125,11.5721707 C17.236375,11.8081054 17.012625,11.9878651 16.744125,12.1114499 C16.4644375,12.2350347 16.14,12.3024445 15.759625,12.3024445 L14.8981875,12.3024445 L14.8981875,13.4821176 L13.9136875,13.4821176 L13.9136875,9.20158965 L15.759625,9.20158965 C16.14,9.20158965 16.4644375,9.26899954 16.744125,9.39258433 C17.0238125,9.51616913 17.236375,9.69592884 17.3818125,9.93186345 C17.52725,10.1677981 17.6055625,10.4374376 17.6055625,10.7520171 C17.6055625,11.0665966 17.52725,11.3362361 17.3818125,11.5721707 Z M16.4031985,10.1813068 C16.2444975,10.0563068 16.0177819,9.988125 15.7230515,9.988125 L14.906875,9.988125 L14.906875,11.488125 L15.7230515,11.488125 C16.0177819,11.488125 16.2558333,11.4199432 16.4031985,11.2949432 C16.5618995,11.1699432 16.64125,10.9767614 16.64125,10.738125 C16.64125,10.488125 16.5618995,10.3063068 16.4031985,10.1813068 Z" id="Combined-Shape"></path>
        </g>
    </g>
</svg>