<?xml version="1.0" encoding="UTF-8"?>
<svg width="24px" height="24px" viewBox="0 0 24 24" version="1.1" xmlns="http://www.w3.org/2000/svg" xmlns:xlink="http://www.w3.org/1999/xlink">
    <!-- Generator: Sketch 53.2 (72643) - https://sketchapp.com -->
    <title>icon/hiInc_SignatureLogo/Secondary/Negative_Mono_rounded</title>
    <desc>Created with Sketch.</desc>
    <g id="icon/hiInc_SignatureLogo/Secondary/Negative_Mono" stroke="none" stroke-width="1" fill="none" fill-rule="evenodd">
        <path d="M8.59369202,16.1899814 C9.14493506,15.5554731 10.8841558,13.3972542 11.8993692,12.8428942 C12.3335065,12.6064564 12.7159926,12.5721707 13.1109462,12.7582931 C13.3923562,12.8918738 13.5633395,13.1590353 13.5450835,13.5410761 C13.5254917,13.9623006 13.428423,15.0385158 13.4279777,15.3283859 C13.4279777,15.4717625 13.4497959,15.5897588 13.5272727,15.5888683 C13.5891651,15.5888683 13.7761781,15.4134323 13.8946197,15.3038961 C14.9285343,14.3434508 15.8765121,13.1327644 16.8053432,11.9105009 C17.0644898,11.5698701 17.314731,11.4563265 17.5836735,11.5008534 C17.9398887,11.5596289 18.2725046,11.8904638 18.1460482,12.2778479 C17.6829685,13.6987013 17.889128,14.1479777 18.15718,14.1479777 C18.6416327,14.1546568 19.7076067,13.5717996 20.8938033,12.4412616 C21.8665545,11.5020291 22.7100213,10.437551 23.4020037,9.27584416 C23.5093135,9.09773655 23.6117254,8.89246753 23.7893878,8.90226345 C23.9358813,8.91027829 24.0120223,9.04875696 23.9514657,9.41343228 C23.7635622,10.5608905 22.869462,11.9617069 21.7789981,13.094026 C20.6404453,14.2753247 19.287718,15.1640816 18.3014471,15.1640816 C17.2078664,15.1640816 16.9656401,14.0816327 16.6949165,14.0816327 C16.6218924,14.0816327 16.5248237,14.1608905 16.3587384,14.3603711 C15.9615584,14.8372542 14.4716883,16.7737291 13.4965492,16.7777365 C12.6251577,16.7812987 12.023154,16.1641558 12.0342857,15.2851948 C12.0405195,14.9761781 12.1037477,14.5594063 12.1144341,14.2494991 C12.1171058,14.176475 12.1064193,14.1381818 12.0819295,14.1283859 C12.0574397,14.11859 12.0200371,14.1372913 11.9679406,14.1795918 C11.1548794,14.8372542 8.66270872,17.7341744 8.17157699,18.369128 C8.02018553,18.5646011 7.72630798,18.738256 7.41061224,18.6385158 C7.12608534,18.549462 7.03168831,18.2649351 7.01298701,17.9799629 C6.97335807,17.385974 7.11940631,16.6201113 7.15146568,16.4411132 C7.20178108,16.161039 7.25476809,15.9214842 7.22048237,15.9205937 C7.18619666,15.9197032 7.05662338,16.0141002 6.9657885,16.0737662 C6.38248609,16.4575881 4.36808905,17.8993692 2.19072356,17.8499443 C1.24764378,17.8459369 0.57038961,17.6099443 0.128237477,17.2314657 C0.00489795918,17.1259369 -0.0182560297,17.0172913 0.0200371058,16.9429314 C0.0583302412,16.8685714 0.157625232,16.8289425 0.279628942,16.8623377 C0.649202226,16.9629685 1.46493506,17.1780334 2.92764378,16.8178108 C4.94204082,16.3217811 7.09358071,14.658256 7.58204082,14.3069388 C7.65565884,14.2495753 7.70952114,14.1706499 7.7361039,14.0811874 C8.007718,13.1550278 8.53758813,11.1330612 9.5870872,9.27628942 C10.7176252,7.27970315 12.0765863,5.87621521 13.2244898,6.03384045 C14.1444156,6.16029685 14.2272356,7.13766234 14.1230427,7.62211503 C13.8857143,8.72727273 13.082449,9.98738404 12.1562894,11.145974 C10.8400742,12.7934694 9.27584416,14.2348052 8.73439703,14.739295 C8.71082422,14.7594552 8.69132703,14.78394 8.67695733,14.8114286 C8.66716141,14.8376994 8.64979592,14.9227458 8.64044527,14.9712801 C8.55940631,15.3951763 8.49261596,15.7041929 8.40935065,16.1418924 C8.39955473,16.1930983 8.37907236,16.296846 8.42938776,16.3164378 C8.47970315,16.3360297 8.55317254,16.2385158 8.59369202,16.1899814 Z M9.25536178,12.7533952 C9.27584416,12.7596289 9.35109462,12.6714657 9.56927644,12.4599629 C10.1868646,11.8606308 11.9737291,9.73714286 12.6861596,8.07539889 C12.8037106,7.80200371 13.1510204,7.05662338 12.8932096,7.03257885 C12.726679,7.0174397 12.3499814,7.20222635 11.783154,7.81714286 C10.8035622,8.88089054 9.78434137,11.2305751 9.38671614,12.3517625 C9.32749536,12.5236364 9.23666048,12.7467161 9.25714286,12.7533952 L9.25536178,12.7533952 Z M18.1718738,10.5346197 C17.8966976,10.541744 17.8058627,10.3195547 17.7421892,9.87116883 C17.6785158,9.42278293 18.0467532,9.18634508 18.4474954,9.0696846 C18.8713915,8.94723562 18.8362152,9.55591837 18.7712059,9.85736549 C18.7061967,10.1588126 18.4973655,10.7345455 18.1718738,10.5346197 Z" id="Combined-Shape" fill="#FFFFFF"></path>
    </g>
</svg>