<?xml version="1.0" encoding="UTF-8"?>
<svg width="107px" height="24px" viewBox="0 0 107 24" version="1.1" xmlns="http://www.w3.org/2000/svg" xmlns:xlink="http://www.w3.org/1999/xlink">
    <!-- Generator: Sketch 53.2 (72643) - https://sketchapp.com -->
    <title>icon/payment/wechat_pay_chinese_rounded</title>
    <desc>Created with Sketch.</desc>
    <g id="icon/payment/wechat_pay_chinese" stroke="none" stroke-width="1" fill="none" fill-rule="evenodd">
        <path d="M9.82773099,14.9837922 C9.39766741,15.2006318 8.87247185,15.0413432 8.63665205,14.6225455 L8.57783333,14.4938182 L6.1180848,9.13277922 C6.09061423,9.07351158 6.07590676,9.0091696 6.07490936,8.9438961 C6.0757311,8.77455724 6.17208675,8.62007337 6.32412186,8.54434184 C6.47615696,8.46861031 6.65802421,8.48450615 6.7945,8.58545455 L9.69883041,10.6372987 C10.0544974,10.8695993 10.4996604,10.9201349 10.8986696,10.7735065 L24.5468012,4.73766234 C22.100193,1.87262338 18.0704854,0 13.5107836,0 C6.04894152,0 0,5.00758442 0,11.1864935 C0,14.5577143 1.8199386,17.5923117 4.66826608,19.6429091 C4.90540665,19.8105685 5.04636762,20.0822535 5.04652047,20.3719481 C5.04373056,20.4687222 5.02773187,20.5646678 4.99896491,20.6571429 C4.7715117,21.5005714 4.40702339,22.8508052 4.39012865,22.9140779 C4.35205004,23.0195391 4.32765748,23.1294163 4.31754386,23.241039 C4.3177097,23.3599111 4.36526892,23.4738489 4.44975902,23.5577873 C4.53424912,23.6417257 4.64874909,23.6887888 4.76807018,23.6886234 C4.86071084,23.6849137 4.95058927,23.6561445 5.0280614,23.6054026 L7.98589181,21.9085714 C8.20218752,21.7770479 8.44991739,21.7056886 8.7032924,21.7019221 C8.83785403,21.7018859 8.97166846,21.7218458 9.10031871,21.7611429 C10.5349579,22.1691806 12.0197627,22.3756417 13.5117222,22.3745455 C20.9732515,22.3745455 27.022193,17.3654026 27.022193,11.1849351 C27.0145887,9.34632254 26.4808251,7.54799921 25.4835205,6.00093506 L9.92722222,14.9258182 L9.82773099,14.9837922 Z" id="形状_1" fill="#21BD0A"></path>
        <path d="M69.6832807,7.95397403 L59.5483158,7.95397403 L59.5483158,8.85787013 L69.6832807,8.85787013 L69.6832807,7.95397403 Z M69.6832807,10.7750649 L59.5483158,10.7750649 L59.5483158,11.7484675 L69.6832807,11.7484675 L69.6832807,10.7750649 Z M69.426731,19.1167792 L69.426731,13.6662857 L59.8051784,13.6662857 L59.8051784,19.1167792 L69.426731,19.1167792 L69.426731,19.1167792 Z M60.785386,14.5692468 L68.4468363,14.5692468 L68.4468363,18.2135065 L60.785386,18.2135065 L60.785386,14.5692468 Z M56.7666287,19.6834286 L56.7666287,7.14264935 C57.3535543,5.87789826 57.8543331,4.57521168 58.2655673,3.24342857 L57.3582573,2.72290909 C56.5360073,5.69924085 55.2352676,8.52323876 53.5065702,11.0851948 L54.0472018,12.0084156 C54.6175556,11.1702857 55.2195088,10.185039 55.7861082,9.15179221 L55.7861082,19.6834286 L56.7660029,19.6834286 L56.7666287,19.6834286 Z M93.5908977,19.6834286 L93.5908977,7.14264935 C94.1779271,5.87790513 94.6788105,4.57521857 95.0901491,3.24342857 L94.1828392,2.72290909 C93.3606912,5.69922346 92.0600573,8.52322114 90.3314649,11.0851948 L90.8720965,12.0084156 C91.4424503,11.1702857 92.0444035,10.185039 92.6110029,9.15179221 L92.6110029,19.6834286 L93.5905848,19.6834286 L93.5908977,19.6834286 Z M70.7485877,5.06212987 L64.7944444,5.06212987 L65.425807,4.70119481 L65.4483333,4.68872727 L65.4383216,4.66535065 C65.365424,4.49735065 65.1758275,4.10212987 64.9749678,3.68384416 C64.7872485,3.29392208 64.5945234,2.89090909 64.5022281,2.68457143 L64.4897135,2.65558442 L63.5864708,3.17361039 L63.5996111,3.19761039 C63.9228012,3.80228571 64.2006257,4.35615584 64.4493538,4.89163636 C64.4781205,4.94549746 64.4998834,5.0027897 64.514117,5.06212987 L58.5549678,5.06212987 L58.5549678,6.03615584 L70.747962,6.03615584 L70.747962,5.06212987 L70.7485877,5.06212987 Z M44.595848,4.32311688 L43.688538,4.32311688 L43.688538,7.49672727 L41.9715322,7.49672727 L41.9715322,2.98316883 L41.0604678,2.98316883 L41.0604678,7.49672727 L39.2724415,7.49672727 L39.2724415,4.32311688 L38.3651316,4.32311688 L38.3651316,8.40031169 L44.5964737,8.40031169 L44.5964737,4.32311688 L44.595848,4.32311688 Z M44.170038,11.0798961 L44.170038,10.176 L38.6476491,10.176 L38.6476491,11.0798961 L44.1694123,11.0798961 L44.170038,11.0798961 Z M39.8402924,14.5773506 L39.8402924,13.7594805 L42.6219795,13.7594805 L42.6219795,15.7748571 C42.5875643,16.4777143 42.5522105,16.6924675 42.309114,17.0281558 L42.2984766,17.0431169 L42.8563158,18.0040519 L42.8822836,17.9834805 C43.3716053,17.5932468 44.2063304,16.8825974 45.363307,15.8708571 L45.3808275,15.8552727 L44.9428158,15.1006753 L44.9252953,15.0710649 L43.5311667,16.2592208 L43.5311667,12.8565195 L38.8607105,12.8565195 L38.8607105,14.2279481 C38.9930526,16.1049351 38.5215643,17.4470649 37.4596988,18.2175584 L37.4387368,18.2325195 L37.9446404,19.1052468 L37.9615351,19.1345455 L37.9875029,19.113039 C39.3112368,18.0274286 39.9347778,16.5017143 39.8402924,14.5773506 Z M33.8739474,7.25080519 L34.4227135,8.19490909 C35.8551907,6.76120266 37.0406745,5.10208346 37.9315,3.28425974 L37.0833216,2.7974026 C36.289851,4.46135601 35.2027966,5.96977804 33.8739474,7.25080519 L33.8739474,7.25080519 Z M33.625845,12.9235325 L34.1295585,13.7906494 L34.1498947,13.8255584 L34.1758626,13.7943896 C34.7124269,13.171013 35.2377281,12.5149091 35.738,11.8416623 L35.738,19.6818701 L36.6468743,19.6818701 L36.6468743,10.3536623 C37.0849618,9.57131823 37.4794571,8.76552604 37.8285673,7.93994805 L37.8382661,7.91688312 L36.9588012,7.41412987 L36.9465994,7.4452987 C36.1625478,9.44031575 35.0441096,11.2881964 33.6389854,12.9101299 L33.625845,12.9235325 Z M51.262386,6.98742857 L51.262386,6.08353247 L47.2282982,6.08353247 C47.622726,5.00791209 47.9192651,3.89913544 48.1143333,2.7705974 L47.1654123,2.7705974 C46.6827551,5.24025749 45.7869588,7.61156024 44.5154415,9.78545455 L45.088924,10.7731948 L45.5097281,9.93631169 C45.6683509,9.66077922 45.7969386,9.42794805 45.893614,9.24280519 C46.1776959,11.6770909 46.6739006,13.6376104 47.3694006,15.0688831 C46.543761,16.4005724 45.5137197,17.5951189 44.3167719,18.609039 L44.2992515,18.6243117 L44.8233012,19.526026 L44.8414474,19.5571948 L44.8677281,19.5325714 C46.3069094,18.1923117 47.3015088,17.0212987 47.8280614,16.0466494 C48.6077788,17.3374786 49.5466937,18.5259469 50.6228889,19.5843117 L50.6491696,19.6108052 L51.1872982,18.6850909 L51.1988743,18.6657662 L51.1822924,18.6504935 C50.0632838,17.6338895 49.1099376,16.4499504 48.3564912,15.1411948 C49.3870702,13.2710649 50.0296959,10.5282078 50.2671608,6.98898701 L51.262386,6.98898701 L51.262386,6.98742857 Z M47.8997076,14.0094545 C47.3015088,12.4756364 46.8572398,10.3898182 46.5784766,7.80903896 C46.6741473,7.52793424 46.7891367,7.25372708 46.9226287,6.98836364 L49.3585994,6.98836364 C49.1702544,9.93257143 48.6796813,12.2942338 47.8997076,14.0094545 Z M89.172924,6.0321039 L89.172924,5.06961039 L81.4276257,5.06961039 L81.4276257,2.62690909 L80.4377193,2.62690909 L80.4377193,5.06961039 L72.76,5.06961039 L72.76,6.0321039 L80.4377193,6.0321039 L80.4377193,9.23968831 L75.4600292,9.23968831 L75.4600292,10.1202078 C76.0792528,11.4008226 76.8553331,12.6000847 77.7705409,13.6905974 C78.4588672,14.5272062 79.2279242,15.2945179 80.0666608,15.9815065 C77.9331231,17.2912816 75.5741159,18.1952108 73.1094708,18.6473766 L73.6817018,19.6323117 C76.2215467,19.0089534 78.6417803,17.9754326 80.8463216,16.5727792 C82.8914564,18.028212 85.2090651,19.0598137 87.6617836,19.6064416 L87.6727339,19.6089351 L87.6893158,19.6126753 L88.0910351,18.8534026 C87.1835263,18.5993012 86.2893807,18.3000161 85.4119678,17.9566753 C84.0520864,17.4415294 82.7542878,16.7765148 81.5427602,15.974026 C83.722375,14.380073 85.4068984,12.2063722 86.4031257,9.70223377 L85.5974971,9.23968831 L81.4276257,9.23968831 L81.4276257,6.0321039 L89.172924,6.0321039 Z M85.2452105,10.0840519 C85.2452105,10.0840519 84.2474825,12.9244675 80.8266111,15.3487792 C78.9760064,13.9550426 77.4748146,12.1529863 76.4408626,10.0840519 L85.2452105,10.0840519 L85.2452105,10.0840519 Z M101.614646,18.4329351 C101.414412,18.4329351 101.227944,18.4329351 101.047421,18.4304416 L101.047421,19.4038442 C101.436626,19.4038442 101.718205,19.4004156 101.903421,19.4004156 C102.864231,19.4004156 103.390158,19.1965714 103.800637,18.7885714 C104.199541,18.3917922 104.390389,17.7849351 104.366924,16.987013 L104.366924,7.94119481 L107,7.94119481 L107,6.96966234 L104.366924,6.96966234 L104.366924,2.7974026 L103.383901,2.7974026 L103.383901,6.96966234 L95.2988304,6.96966234 L95.2988304,7.94119481 L103.382962,7.94119481 L103.382962,16.9901299 C103.383901,17.9731948 102.770371,18.4338701 101.614646,18.4338701 L101.614646,18.4329351 Z M99.4223977,15.2119481 L100.395096,14.6493506 C99.8754269,13.5952208 99.1777368,12.1966753 98.3142281,10.4792727 L97.4269415,10.9944935 C98.0238889,12.1536623 98.6921696,13.5662338 99.4223977,15.2128831 L99.4223977,15.2119481 Z" id="形状_1_拷贝" fill="#484848"></path>
    </g>
</svg>