<?xml version="1.0" encoding="UTF-8"?>
<svg width="91px" height="24px" viewBox="0 0 91 24" version="1.1" xmlns="http://www.w3.org/2000/svg" xmlns:xlink="http://www.w3.org/1999/xlink">
    <!-- Generator: Sketch 53.2 (72643) - https://sketchapp.com -->
    <title>icon/payment/ali_pay_english_rounded</title>
    <desc>Created with Sketch.</desc>
    <g id="icon/payment/ali_pay_english" stroke="none" stroke-width="1" fill="none" fill-rule="evenodd">
        <g id="Alipay-logo">
            <path d="M19.7181881,0.248285714 L3.74868652,0.248285714 C1.67622571,0.248285714 0,1.92714286 0,4.00285714 L0,19.9668571 C0,22.0728571 1.67622571,23.7517143 3.74868652,23.7517143 L19.6876646,23.7517143 C21.7903636,23.7517143 23.4665893,22.0728571 23.4665893,19.9974286 L23.4665893,19.7531429 C23.4665893,19.7531429 17.4018245,17.2197143 14.3237994,15.724 C12.2513386,18.2268571 9.6000721,19.7837143 6.85723511,19.7837143 C2.19426959,19.7837143 0.60961442,15.6934286 2.80388401,13.0074286 C3.29140439,12.4274286 4.11439812,11.8474286 5.3638652,11.5422857 C7.34475549,11.0537143 10.5143511,11.8474286 13.4705674,12.8242857 C13.9886113,11.8474286 14.4456082,10.7485714 14.7810815,9.58857143 L5.63800627,9.58857143 L5.63800627,8.67285714 L10.3620188,8.67285714 L10.3620188,6.994 L4.69320376,6.994 L4.69320376,6.07828571 L10.3922571,6.07828571 L10.3922571,3.69742857 C10.3922571,3.69742857 10.3922571,3.30057143 10.7884922,3.30057143 L13.1048558,3.30057143 L13.1048558,6.07828571 L18.7428621,6.07828571 L18.7428621,6.994 L13.1048558,6.994 L13.1048558,8.67285714 L17.7067743,8.67285714 C17.2800157,10.4737143 16.6096395,12.1525714 15.7561223,13.6177143 C17.1579216,14.1365714 18.407674,14.5945714 19.3524765,14.9302857 C22.7046426,16.0597143 23.4665893,16.1208571 23.4665893,16.1208571 L23.4665893,4.00285714 C23.4665893,1.92714286 21.7903636,0.248285714 19.7181881,0.248285714" id="Fill-13" fill="#00A1E9"></path>
            <path d="M3.59606897,13.6177143 C1.76751097,15.144 2.86464577,17.9522857 6.55228527,17.9522857 C8.6857931,17.9522857 10.8190157,16.6397143 12.4952414,14.5334286 C10.118116,13.404 8.07617868,12.6105714 5.9124326,12.8242857 C5.30281818,12.8545714 4.20568339,13.0988571 3.59606897,13.6177143" id="Fill-14" fill="#3492C3"></path>
            <path d="M73.4475549,7.87914286 L76.5561034,7.87914286 L79.6341285,13.8925714 L82.1635862,8.24542857 C82.2246332,8.12342857 82.2856803,8.032 82.407489,7.97085714 C82.5292978,7.90971429 82.6513918,7.87914286 82.7732006,7.87914286 L84.4494263,7.87914286 L79.5730815,18.7457143 C78.3846614,21.7065714 75.5502539,21.2794286 75.03221,21.2794286 L75.03221,19.6311429 C75.4284451,19.6311429 76.7389592,19.6614286 77.3180502,18.99 C77.4398589,18.8374286 77.5921912,18.5625714 77.6532382,18.3794286 C77.7445235,18.1962857 77.8055705,18.0437143 77.8971411,17.8911429 L78.2323292,17.0974286 L73.4475549,7.87914286 Z M70.2779592,8.18457143 C68.8761599,7.78771429 67.0781254,7.696 64.639953,8.33714286 C64.7312382,8.58142857 64.8228088,9.00857143 64.914094,9.25285714 C68.7845893,8.58142857 69.5160125,9.10028571 69.5160125,10.7791429 L69.5160125,11.298 C68.8151129,11.2368571 67.9618809,11.1454286 67.2912194,11.1148571 C64.639953,11.0842857 63.6951505,13.16 63.6951505,14.5028571 C63.6951505,16.8228571 65.8894201,18.99 69.5160125,17.3722857 L69.5160125,17.7385714 L72.5332759,17.7385714 L72.5332759,10.6874286 C72.5332759,9.314 71.3445705,8.48971429 70.2779592,8.18457143 L70.2779592,8.18457143 Z M66.1333229,14.6251429 C66.1333229,13.4651429 67.0170784,12.58 68.1142132,12.4882857 C68.8151129,12.4274286 69.2418715,12.58 69.485489,12.7325714 L69.485489,16.1817143 C69.1197774,16.548 68.6627806,16.7617143 68.1142132,16.7617143 C67.0170784,16.7311429 66.1333229,15.7848571 66.1333229,14.6251429 L66.1333229,14.6251429 Z M52.7238025,8.64228571 C52.7238025,8.48971429 52.7845643,8.33714286 52.8761348,8.24542857 C52.9979436,8.12342857 53.1200376,8.06257143 53.2723699,8.06257143 L55.6494953,8.06257143 L55.6494953,8.82542857 C55.9846834,8.55085714 56.3809185,8.30657143 56.8076771,8.12342857 C57.2341505,7.94028571 57.7521944,7.84885714 58.3312853,7.84885714 C58.9408997,7.84885714 59.5199906,7.97085714 60.007511,8.21514286 C60.5255549,8.45914286 60.9523135,8.79485714 61.3180251,9.19171429 C61.6837367,9.61914286 61.9578777,10.1074286 62.1407335,10.6568571 C62.3235893,11.2062857 62.4456834,11.7862857 62.4456834,12.4274286 C62.4456834,13.2208571 62.3235893,13.9534286 62.1104953,14.6251429 C61.8665925,15.2965714 61.5619279,15.8765714 61.1046458,16.3648571 C60.6778871,16.8534286 60.1598433,17.25 59.5505141,17.5248571 C58.9408997,17.7994286 58.24,17.9522857 57.4780533,17.9522857 C57.0818182,17.9522857 56.7466301,17.9522857 56.4722038,17.9217143 C56.1980627,17.8911429 55.9236364,17.83 55.6494953,17.708 L55.6494953,21.6151429 L52.7238025,21.6151429 L52.7238025,8.64228571 Z M55.7713041,15.2965714 C55.7713041,15.5408571 55.8018276,15.7545714 55.8931129,15.968 C55.9846834,16.1817143 56.1064922,16.3648571 56.2588245,16.5174286 C56.411442,16.6702857 56.6245361,16.7922857 56.8379154,16.8837143 C57.0512947,16.9754286 57.325721,17.006 57.5693386,17.006 C57.8132414,17.006 58.0571442,16.9142857 58.2702382,16.7617143 C58.4836176,16.5785714 58.6969969,16.3648571 58.8493292,16.0597143 C59.0019467,15.7545714 59.154279,15.3882857 59.2455643,14.9608571 C59.3371348,14.5334286 59.3978966,14.0757143 59.3978966,13.5871429 C59.3978966,12.9462857 59.3676583,12.3968571 59.2760878,11.9085714 C59.1848025,11.42 59.0627085,11.0231429 58.9103762,10.6874286 C58.7580439,10.3517143 58.5751881,10.1074286 58.3618088,9.95485714 C58.1484295,9.80228571 57.9045266,9.71057143 57.6609091,9.71057143 C57.4780533,9.71057143 57.2951975,9.74114286 57.1123417,9.80228571 C56.9294859,9.86342857 56.7771536,9.95485714 56.6245361,10.0771429 C56.4722038,10.1991429 56.3198715,10.3211429 56.1675392,10.4737143 C56.0152069,10.6262857 55.8931129,10.7791429 55.7713041,10.9622857 L55.7713041,15.2965714 Z M47.2381285,8.76457143 C47.2381285,8.61171429 47.2988903,8.48971429 47.4209843,8.36771429 C47.5427931,8.24542857 47.6951254,8.21514286 47.8474577,8.21514286 L50.3161536,8.21514286 L50.3161536,17.9825714 L47.2683668,17.9825714 L47.2683668,8.76457143 L47.2381285,8.76457143 Z M44.7999561,17.6468571 L41.7524545,17.6468571 L41.7524545,5.07114286 C41.7524545,4.91857143 41.8132163,4.79628571 41.9353103,4.67428571 C42.0571191,4.55228571 42.2094514,4.52171429 42.3617837,4.52171429 L44.8304796,4.52171429 L44.8304796,17.6468571 L44.7999561,17.6468571 Z M37.3028683,17.6468571 L40.5332257,17.6468571 L34.4989843,4.52171429 L33.6152288,4.52171429 C33.4628966,4.52171429 33.3408025,4.55228571 33.2189937,4.64371429 C33.097185,4.73542857 33.0056144,4.82685714 32.9445674,4.94885714 L26.8190408,17.6468571 L28.9827868,17.6468571 L30.0799216,15.5102857 L36.2970188,15.5102857 L37.3028683,17.6468571 Z M33.2800408,8.79485714 L35.9618307,14.5945714 L30.4761567,14.5945714 L33.2800408,8.79485714 L33.2800408,8.79485714 Z" id="Fill-15" fill="#3F3B3A"></path>
            <path d="M50.2856301,5.28485714 C50.2856301,6.04771429 49.6152539,6.65828571 48.7617367,6.65828571 C47.9085047,6.65828571 47.2381285,6.04771429 47.2381285,5.28485714 C47.2381285,4.52171429 47.9085047,3.91114286 48.7617367,3.91114286 C49.6152539,3.91114286 50.2856301,4.52171429 50.2856301,5.28485714" id="Fill-16" fill="#00A1E9"></path>
            <path d="M90.5141912,5.43742857 L89.9045768,6.56685714 L89.2949624,5.43742857 L88.9902978,5.43742857 L88.9902978,7.26885714 L89.2949624,7.26885714 L89.2949624,6.04771429 L89.782768,6.93314286 L90.0263856,6.93314286 L90.5141912,6.04771429 L90.5141912,7.26885714 L90.8188558,7.26885714 L90.8188558,5.43742857 L90.5141912,5.43742857 Z M87.1617398,5.43742857 L87.1617398,5.68142857 L87.7408307,5.68142857 L87.7408307,7.26885714 L88.0760188,7.26885714 L88.0760188,5.68142857 L88.6551097,5.68142857 L88.6551097,5.43742857 L87.1617398,5.43742857 L87.1617398,5.43742857 Z" id="Fill-17" fill="#0A0B09"></path>
        </g>
    </g>
</svg>