<?xml version="1.0" encoding="UTF-8"?>
<svg width="24px" height="24px" viewBox="0 0 24 24" version="1.1" xmlns="http://www.w3.org/2000/svg" xmlns:xlink="http://www.w3.org/1999/xlink">
    <!-- Generator: Sketch 53.2 (72643) - https://sketchapp.com -->
    <title>icon/hiInc_SignatureLogo/Primary/Positive_Colour_rounded</title>
    <desc>Created with Sketch.</desc>
    <g id="icon/hiInc_SignatureLogo/Primary/Positive_Colour" stroke="none" stroke-width="1" fill="none" fill-rule="evenodd">
        <g id="hiInc_SignatureLogo_Primary_Positive_Colour" fill-rule="nonzero">
            <path d="M17.8458667,14.8170667 C16.536,14.8170667 16.2458667,13.5205333 15.9221333,13.5205333 C15.8346667,13.5205333 15.7184,13.616 15.5194667,13.8549333 C15.0437333,14.4256 13.2592,16.7450667 12.0912,16.7498667 C11.0474667,16.7541333 10.3264,16.0154667 10.3392,14.9621333 C10.3472,14.592 10.4229333,14.0928 10.4357333,13.7221333 C10.4389333,13.6346667 10.4261333,13.5882667 10.3968,13.5765333 C10.3674667,13.5648 10.3221333,13.5877333 10.2602667,13.6378667 C9.28586667,14.4256 6.30133333,17.8954667 5.71306667,18.656 C5.53173333,18.8906667 5.17973333,19.0986667 4.8016,18.9792 C4.46026667,18.8725333 4.34773333,18.5317333 4.3248,18.1898667 C4.27733333,17.4784 4.45226667,16.5610667 4.4912,16.3472 C4.55146667,16.0117333 4.61493333,15.7242667 4.57386667,15.7232 C4.5328,15.7221333 4.3776,15.8352 4.2688,15.9072 C3.8336,16.1930667 2.7328,16.9738667 1.33546667,17.504 C3.39498331,21.4940519 7.50977472,24.0004612 12,24 C18.6272,24 24,18.6272 24,12 C23.9999309,11.3152419 23.9417667,10.6317241 23.8261333,9.9568 C23.3193747,10.8202628 22.710554,11.6196086 22.0128,12.3376 C20.648,13.7530667 19.0277333,14.8170667 17.8458667,14.8170667 Z" id="Path" fill="#002855"></path>
            <path d="M7.3872,11.5733333 C8.12693333,10.856 10.2672,8.31253333 11.1205333,6.32213333 C11.2608,5.99413333 11.6768,5.10133333 11.368,5.07306667 C11.1690667,5.0544 10.7178667,5.27573333 10.0389333,6.01226667 C8.8656,7.2864 7.6448,10.1013333 7.168,11.4442667 C7.09493333,11.6496 6.98613333,11.9168 7.0112,11.9242667 C7.03626667,11.9317333 7.12586667,11.8288 7.3872,11.5733333 Z" id="Path" fill="#002855"></path>
            <path d="M5.19146667,13.5205333 C5.51626667,12.4112 6.15146667,9.9888 7.40853333,7.7648 C8.76053333,5.37066667 10.3882667,3.6896 11.7610667,3.8784 C12.8634667,4.02986667 12.9626667,5.20106667 12.8378667,5.7808 C12.5530667,7.10506667 11.5909333,8.61386667 10.4816,10.0016 C8.90506667,11.9749333 7.03146667,13.7013333 6.38346667,14.3061333 C6.35494463,14.3297908 6.33153617,14.359006 6.31466667,14.392 C6.29686708,14.4552232 6.28227072,14.5193048 6.27093333,14.584 C6.17333333,15.0912 6.09333333,15.4613333 5.9936,15.9856 C5.98186667,16.0474667 5.95786667,16.1717333 6.01813333,16.1946667 C6.0784,16.2176 6.168,16.1013333 6.21866667,16.0432 C6.88,15.2837333 8.96,12.6981333 10.1781333,12.0346667 C10.6981333,11.7509333 11.1557333,11.7098667 11.6288,11.9333333 C11.9664,12.0933333 12.1712,12.4133333 12.1493333,12.8704 C12.1258667,13.3754667 12.0096,14.6645333 12.0085333,15.0117333 C12.0085333,15.1829333 12.0346667,15.3248 12.128,15.3232 C12.2021333,15.3232 12.4261333,15.1136 12.568,14.9818667 C13.8064,13.832 14.9418667,12.3813333 16.0544,10.9178667 C16.3642667,10.5098667 16.6645333,10.3733333 16.9866667,10.4266667 C17.4133333,10.4970667 17.8117333,10.8933333 17.6602667,11.3573333 C17.1056,13.0592 17.3525333,13.5973333 17.6736,13.6 C18.2538667,13.608 19.5306667,12.9098667 20.9509333,11.5557333 C21.905091,10.6368987 22.754537,9.61520248 23.4837333,8.50933333 C21.9888,3.58453333 17.4133333,0 12,0 C5.3728,0 1.27509968e-15,5.3728 1.27509968e-15,12 C-0.00153826918,13.4807999 0.271709131,14.94903 0.805866667,16.3301333 C2.74933333,15.5056 4.53333333,14.1333333 5.00693333,13.7909333 C5.09457119,13.7217191 5.15895883,13.6273708 5.19146667,13.5205333 Z M18.0192,7.51466667 C18.5264,7.368 18.4842667,8.0976 18.4069333,8.45866667 C18.3296,8.81973333 18.0789333,9.5088 17.6890667,9.26933333 C17.3589333,9.27733333 17.2501333,9.01013333 17.1738667,8.47413333 C17.0976,7.93813333 17.5370667,7.6544 18.0192,7.51466667 Z" id="Shape" fill="#002855"></path>
            <path d="M20.9509333,11.5557333 C19.5306667,12.9098667 18.2538667,13.608 17.6736,13.6 C17.3536,13.5957333 17.1056,13.0592 17.6602667,11.3573333 C17.8117333,10.8933333 17.4133333,10.4970667 16.9866667,10.4266667 C16.6666667,10.3733333 16.3642667,10.5098667 16.0544,10.9178667 C14.9418667,12.3813333 13.8064,13.832 12.568,14.9818667 C12.4261333,15.1136 12.2021333,15.3221333 12.128,15.3232 C12.0346667,15.3232 12.0085333,15.1829333 12.0085333,15.0117333 C12.0085333,14.6645333 12.1258667,13.3754667 12.1493333,12.8704 C12.1712,12.4122667 11.9664,12.0922667 11.6288,11.9333333 C11.1557333,11.7098667 10.6981333,11.7509333 10.1781333,12.0346667 C8.96,12.6981333 6.88,15.2837333 6.21866667,16.0432 C6.168,16.1013333 6.07573333,16.2170667 6.01813333,16.1946667 C5.96053333,16.1722667 5.98186667,16.0474667 5.9936,15.9856 C6.09333333,15.4613333 6.17333333,15.0912 6.27093333,14.584 C6.28227072,14.5193048 6.29686708,14.4552232 6.31466667,14.392 C6.33153617,14.359006 6.35494463,14.3297908 6.38346667,14.3061333 C7.03146667,13.7013333 8.90506667,11.9738667 10.4816,10.0016 C11.5909333,8.61493333 12.5530667,7.10506667 12.8378667,5.7808 C12.9626667,5.20106667 12.8634667,4.02986667 11.7610667,3.8784 C10.3882667,3.6896 8.76053333,5.37173333 7.40853333,7.7648 C6.152,9.9888 5.51626667,12.4112 5.19146667,13.5205333 C5.15895883,13.6273708 5.09457119,13.7217191 5.00693333,13.7909333 C4.53333333,14.1333333 2.74933333,15.5056 0.805866667,16.3301333 C0.960891386,16.730433 1.13732374,17.1221093 1.3344,17.5034667 C2.7328,16.9701333 3.8336,16.1925333 4.26773333,15.9066667 C4.3744,15.8346667 4.5344,15.7216 4.5728,15.7226667 C4.6112,15.7237333 4.5504,16.0112 4.49013333,16.3466667 C4.4512,16.56 4.2768,17.4778667 4.32373333,18.1893333 C4.34666667,18.5312 4.4592,18.8698667 4.80053333,18.9786667 C5.17653333,19.0981333 5.53066667,18.8901333 5.712,18.6554667 C6.29866667,17.8949333 9.28533333,14.4250667 10.2592,13.6373333 C10.3210667,13.5872 10.3658667,13.5642667 10.3957333,13.576 C10.4256,13.5877333 10.4378667,13.6341333 10.4346667,13.7216 C10.4218667,14.0922667 10.3461333,14.5914667 10.3381333,14.9616 C10.3253333,16.0149333 11.0464,16.7536 12.0901333,16.7493333 C13.2581333,16.7445333 15.0426667,14.4250667 15.5184,13.8544 C15.7173333,13.6154667 15.8336,13.52 15.9210667,13.52 C16.2464,13.52 16.5349333,14.8165333 17.8448,14.8165333 C19.0266667,14.8165333 20.6469333,13.7525333 22.0106667,12.3370667 C22.7084206,11.6190753 23.3172414,10.8197294 23.824,9.95626667 C23.7400128,9.46714026 23.6256584,8.98371649 23.4816,8.5088 C22.7531038,9.6147465 21.9043758,10.6366186 20.9509333,11.5557333 L20.9509333,11.5557333 Z M7.168,11.4464 C7.6448,10.1034667 8.864,7.2864 10.0389333,6.0144 C10.7178667,5.27786667 11.1690667,5.0544 11.368,5.0752 C11.6768,5.10346667 11.2613333,5.99626667 11.1205333,6.32426667 C10.2672,8.31466667 8.12693333,10.8576 7.3872,11.5754667 C7.12586667,11.8288 7.03573333,11.9349333 7.01386667,11.9269333 C6.992,11.9189333 7.09333333,11.6517333 7.168,11.4464 Z" id="Shape" fill="#FFFFFF"></path>
            <path d="M17.6890667,9.26933333 C18.0789333,9.5088 18.3290667,8.8192 18.4069333,8.45866667 C18.4848,8.09813333 18.5264,7.368 18.0192,7.51466667 C17.5392,7.6544 17.0976,7.9376 17.1738667,8.47466667 C17.2501333,9.01173333 17.3589333,9.28 17.6890667,9.26933333 Z" id="Path" fill="#C19A53"></path>
        </g>
    </g>
</svg>