<?xml version="1.0" encoding="UTF-8"?>
<svg width="128px" height="24px" viewBox="0 0 128 24" version="1.1" xmlns="http://www.w3.org/2000/svg" xmlns:xlink="http://www.w3.org/1999/xlink">
    <!-- Generator: Sketch 53.2 (72643) - https://sketchapp.com -->
    <title>icon/payment/wechat_pay_english_rounded</title>
    <desc>Created with Sketch.</desc>
    <g id="icon/payment/wechat_pay_english" stroke="none" stroke-width="1" fill="none" fill-rule="evenodd">
        <path d="M9.73816471,15.315 C9.31149063,15.5307506 8.78992053,15.3714935 8.55792941,14.954625 L8.49957647,14.826375 L6.06230588,9.478875 C6.03502912,9.42004031 6.02041014,9.35617242 6.01938824,9.291375 C6.01863703,9.12278795 6.11372525,8.96829574 6.26489893,8.89248765 C6.4160726,8.81667957 6.59729437,8.83261238 6.7328,8.933625 L9.60865882,10.981125 C9.96052355,11.212659 10.4021253,11.2632212 10.7975529,11.11725 L24.3230118,5.09775 C21.8985412,2.240625 17.9060706,0.37275 13.3876706,0.37275 C5.99378824,0.375 0,5.367375 0,11.528625 C0,14.890125 1.80329412,17.915625 4.62569412,19.9605 C4.86177852,20.1278603 5.00203417,20.398614 5.00216471,20.68725 C4.9993715,20.7837986 4.98354309,20.8795332 4.95510588,20.971875 L4.35275294,23.221875 C4.31507825,23.3271723 4.2909181,23.4367913 4.28084706,23.548125 C4.2806472,23.666279 4.32757617,23.7796728 4.41131009,23.8633609 C4.49504402,23.9470491 4.60872383,23.9941763 4.72734118,23.994375 C4.81933444,23.990677 4.90854047,23.9618794 4.98522353,23.911125 L7.91604706,22.2195 C8.13002692,22.0883001 8.37558351,22.0170456 8.62682353,22.01325 C8.76019886,22.013274 8.89281456,22.0332466 9.02023529,22.0725 C10.4410014,22.4791335 11.912055,22.6850188 13.3903059,22.684125 C20.7838118,22.684125 26.7776,17.6895 26.7776,11.528625 C26.7704902,9.6965295 26.2417916,7.90402538 25.2528941,6.35925 L9.83830588,15.258375 L9.73816471,15.315 Z" id="左右结构绿色logo-2" fill="#21BD0A"></path>
        <path d="M46.7922824,12.721125 C46.6944,13.070625 46.5984,13.41 46.5050353,13.7415 C46.1398588,15.0315 45.8202353,16.161375 45.5721412,17.296875 C45.3281882,15.9345 44.9095529,14.334375 44.4653176,12.6795 L42.3344941,4.647 L41.2303059,4.647 L38.8894118,12.739875 C38.3536941,14.485875 37.8868706,16.045875 37.6365176,17.309625 C37.3989647,16.20975 37.0605176,14.87625 36.7043765,13.471875 L34.4316235,4.647 L33.216,4.647 L37.024,19.06575 L38.1067294,19.06575 L40.5560471,10.803375 C41.1407059,8.873625 41.5190588,7.543125 41.7558588,6.351375 C42.0255796,7.85142549 42.3736602,9.33644255 42.7986824,10.800375 L44.9505882,19.06575 L46.0544,19.06575 L50.3762824,4.647 L49.1587765,4.647 L46.7922824,12.721125 Z M57.9640471,17.7225 C57.1255649,18.0993688 56.2101813,18.2755661 55.2911059,18.237 C52.9129412,18.237 51.5384471,16.653375 51.5102118,13.887 L58.9752471,13.887 L58.9903059,13.819125 C59.0301192,13.6109873 59.045031,13.3988835 59.0347294,13.18725 C59.033178,12.1788208 58.7772468,11.1869477 58.2904471,10.30275 C57.6194173,9.13439644 56.344591,8.44253105 54.9952,8.514375 C52.2127059,8.514375 50.3431529,10.75725 50.3431529,14.09625 C50.3431529,17.1945 52.2804706,19.276125 55.1642353,19.276125 C57.0014118,19.276125 58.0378353,18.810375 58.3981176,18.610125 L58.4576,18.577125 L57.9640471,17.7225 Z M54.8683294,9.533625 C55.6171398,9.49869431 56.3469699,9.77460423 56.8839529,10.295625 C57.6948706,11.118375 57.8025412,12.34125 57.8048,12.910875 L51.5640471,12.910875 C51.7865412,11.330625 52.7751529,9.533625 54.8683294,9.533625 L54.8683294,9.533625 Z M67.8234353,18.237 C64.1057882,18.237 61.8861176,15.891375 61.8861176,11.962125 C61.8861176,7.887375 64.1690353,5.454375 67.9928471,5.454375 C68.9636569,5.43771345 69.9266777,5.62956526 70.8163765,6.016875 L71.3543529,5.08575 L71.3099294,5.061 C71.0343529,4.911 69.9802353,4.416375 67.9706353,4.416375 C63.5949176,4.416375 60.6550588,7.441125 60.6550588,11.943 C60.6550588,17.357625 64.3339294,19.27875 67.4842353,19.27875 C68.8170257,19.317352 70.1424894,19.0690788 71.3701647,18.550875 L71.4236235,18.52425 L70.9082353,17.63175 C69.9326154,18.042402 68.8825211,18.2484347 67.8234353,18.237 L67.8234353,18.237 Z M77.8857412,8.515125 C77.1441852,8.51132736 76.4172725,8.72069794 75.7921882,9.118125 C75.2638643,9.43128716 74.8219476,9.87031785 74.5061647,10.39575 L74.5061647,4.4145 L73.3180235,4.4145 L73.3180235,19.06575 L74.5061647,19.06575 L74.5061647,12.7875 C74.4893202,12.4544723 74.5304606,12.1210528 74.6277647,11.802 C75.0619538,10.5153533 76.2492327,9.62986495 77.6109176,9.577125 C79.9631059,9.577125 80.3143529,11.7075 80.3143529,12.977625 L80.3143529,19.066875 L81.5024941,19.066875 L81.5024941,12.871125 C81.5024941,8.725125 78.4896,8.515125 77.8857412,8.515125 L77.8857412,8.515125 Z M96.7762824,18.177375 C96.4809043,18.2355406 96.1802165,18.2626891 95.8791529,18.258375 C94.9285647,18.258375 94.4862118,17.620875 94.4862118,16.2525 L94.4862118,9.745125 L97.3816471,9.745125 L97.3816471,8.74725 L94.4862118,8.74725 L94.4862118,6.46875 L93.2980706,6.46875 L93.2980706,8.74725 L91.5858824,8.74725 L91.5858824,9.745125 L93.2980706,9.745125 L93.2980706,16.062375 C93.2980706,17.235 93.5122824,18.049875 93.9508706,18.546375 C94.3989402,19.0654444 95.0666555,19.3434411 95.7522824,19.296375 C96.2488807,19.3089716 96.7427672,19.2196177 97.2032,19.033875 L97.2585412,19.0095 L96.7762824,18.177375 Z M105.371482,4.541625 C104.338654,4.54228875 103.30794,4.63465424 102.291576,4.817625 L102.220047,4.830375 L102.220047,19.06575 L103.407812,19.06575 L103.407812,13.005375 C103.948712,13.1202972 104.501802,13.1681603 105.054494,13.147875 C106.881882,13.147875 108.391153,12.574125 109.303718,11.535375 C110.007356,10.7320822 110.371616,9.68872296 110.320188,8.623875 C110.363766,7.55803182 109.955395,6.52305928 109.194918,5.772 C108.368188,4.9665 107.0464,4.541625 105.371482,4.541625 Z M109.132047,8.7285 C109.132047,10.889625 107.676988,12.129 105.1392,12.129 C104.555907,12.1494915 103.972686,12.0863456 103.407435,11.9415 L103.407435,5.71275 C104.041128,5.60137005 104.684033,5.55038966 105.327435,5.5605 C107.745882,5.5605 109.132047,6.715125 109.132047,8.7285 L109.132047,8.7285 Z M126.7328,8.74725 L124.239059,15.375 C124.008659,15.975 123.813271,16.557375 123.640471,17.07225 C123.599059,17.19725 123.559027,17.316375 123.520376,17.429625 C123.316706,16.76925 123.065976,16.03875 122.835953,15.43725 L120.1728,8.79975 L120.150965,8.745375 L118.8864,8.745375 L122.696659,18.270375 C122.758958,18.4004763 122.799644,18.5397878 122.817129,18.682875 C122.800413,18.8253527 122.759818,18.9640273 122.697035,19.093125 C122.307993,20.034983 121.740626,20.8934674 121.025882,21.62175 C120.523444,22.1011275 119.929759,22.4754807 119.279812,22.72275 L119.209412,22.749375 L119.755671,23.695125 C120.377126,23.4450092 120.952939,23.0945612 121.459953,22.657875 C122.7776,21.507 123.622776,19.732875 124.907671,16.432875 L127.999247,8.745375 L126.7328,8.745375 L126.7328,8.74725 Z M90.7399529,18.96525 C90.6274335,18.171754 90.5783381,17.370612 90.5931294,16.569375 L90.5931294,12.594375 C90.5931294,9.924375 89.3507765,8.51325 86.9978353,8.51325 C85.9254414,8.5170493 84.8758961,8.82224713 83.9698824,9.39375 L83.9653647,9.39675 L84.4495059,10.234875 C85.1754571,9.76333889 86.0262425,9.51850204 86.8928,9.53175 L86.9304471,9.53175 C87.5725682,9.49225319 88.2034293,9.71312533 88.6795294,10.144125 C89.1689412,10.629 89.4064941,11.37525 89.4064941,12.425625 L89.4064941,12.613125 C86.9187765,12.592875 85.1523765,13.100625 84.1404235,14.10525 C83.5240792,14.7164827 83.188545,15.5541447 83.2131765,16.420125 C83.2131765,17.80575 84.1731765,19.29675 86.2802824,19.29675 C87.5495588,19.3108991 88.7494264,18.7209015 89.5100235,17.708625 L89.6470588,19.06425 L90.7572706,19.06425 L90.7399529,18.96525 Z M89.4053647,15.724125 C89.4080357,15.9236711 89.3737036,16.121994 89.3040941,16.309125 C88.8758076,17.5370682 87.6882626,18.3386377 86.3845647,18.27975 C85.4885647,18.27975 84.4423529,17.74875 84.4423529,16.2525 C84.4221527,15.6641519 84.6498311,15.0941881 85.0703059,14.6805 C85.7904941,13.98075 87.1175529,13.62675 89.0194824,13.62675 C89.1449725,13.62675 89.2736,13.628375 89.4053647,13.631625 L89.4053647,15.724125 L89.4053647,15.724125 Z M117.998682,18.96525 C117.886495,18.1717234 117.837526,17.3705976 117.852235,16.569375 L117.852235,12.594375 C117.852235,9.924375 116.609882,8.51325 114.256188,8.51325 C113.231685,8.51872193 112.227445,8.79806998 111.348329,9.322125 L111.830212,10.1565 C112.530768,9.73766495 113.33454,9.52134119 114.151529,9.53175 L114.189176,9.53175 C114.831322,9.49208015 115.462249,9.71297529 115.938259,10.144125 C116.427671,10.628625 116.665224,11.37525 116.665224,12.425625 L116.665224,12.613125 C114.187671,12.592875 112.413365,13.100625 111.398776,14.10525 C110.78257,14.7165462 110.447175,15.5542002 110.471906,16.420125 C110.471906,17.80575 111.431529,19.29675 113.539012,19.29675 C114.808089,19.3108671 116.007778,18.7210278 116.768376,17.709 L116.906165,19.06425 L118.016,19.06425 L117.998682,18.96525 Z M116.664094,15.724125 C116.666705,15.9236336 116.632506,16.1219232 116.5632,16.309125 C116.134602,17.5368301 114.947262,18.3382614 113.643671,18.27975 C112.747294,18.27975 111.701082,17.74875 111.701082,16.2525 C111.680922,15.664232 111.90844,15.0943299 112.328659,14.6805 C113.048847,13.98075 114.376282,13.62675 116.278212,13.62675 C116.403702,13.62675 116.532329,13.628375 116.664094,13.631625 L116.664094,15.724125 Z" id="左右结构绿色logo-3" fill="#484848"></path>
    </g>
</svg>