<?xml version="1.0" encoding="UTF-8"?>
<svg width="68px" height="24px" viewBox="0 0 68 24" version="1.1" xmlns="http://www.w3.org/2000/svg" xmlns:xlink="http://www.w3.org/1999/xlink">
    <!-- Generator: Sketch 53.2 (72643) - https://sketchapp.com -->
    <title>icon/payment/ali_pay_chinese with english_rounded</title>
    <desc>Created with Sketch.</desc>
    <g id="icon/payment/ali_pay_chinese-with-english" stroke="none" stroke-width="1" fill="none" fill-rule="evenodd">
        <path d="M3.8579462,0 C1.72537076,0 0,1.72088 0,3.84544 L0,20.15504 C0,22.27792 1.72537076,23.99976 3.8579462,23.99976 L20.2264608,23.99976 C22.3573661,23.99976 24.0834526,22.278 24.0834526,20.15504 L24.0834526,19.988168 C24.0117273,19.9583608 17.8244304,17.386568 14.6795696,15.879608 C12.5578901,18.481528 9.82126784,20.060088 6.97990175,20.060088 C2.17520468,20.060088 0.543602339,15.869688 2.81861988,13.111208 C3.31467789,12.509928 4.15849825,11.935448 5.46815439,11.613848 C7.51690292,11.112224 10.7774035,11.927056 13.8333474,12.932008 C14.3830339,11.922888 14.8454737,10.811528 15.1899275,9.628248 L5.77252398,9.628248 L5.77252398,8.677768 L10.6285193,8.677768 L10.6285193,6.973528 L4.74703626,6.973528 L4.74703626,6.022248 L10.6285193,6.022248 L10.6285193,3.591128 C10.6285193,3.591128 10.6285209,3.1816 11.0449736,3.1816 L13.4188496,3.1816 L13.4188496,6.02224 L19.2332075,6.02224 L19.2332075,6.97352 L13.4188496,6.97352 L13.4188496,8.67776 L18.1648519,8.67776 C17.7106915,10.53184 17.0211794,12.23848 16.1555513,13.73664 C17.5959584,14.255848 18.8889127,14.74832 19.8525244,15.06992 C23.0666578,16.14168 23.9674391,16.27264 24.0837151,16.28632 L24.0837151,3.84552 C24.0837151,1.72096 22.357549,8e-05 20.2267233,8e-05 L3.85820865,8e-05 L3.8579462,0 Z M6.49897076,13.0032 C6.29273591,13.0055808 6.08557053,13.0167712 5.87684632,13.0372624 C5.27520936,13.0975576 4.14559018,13.3621504 3.52802292,13.9064624 C1.67699135,15.5151824 2.78487439,18.4561424 6.53131649,18.4561424 C8.70914573,18.4561424 10.8851457,17.0686224 12.5945305,14.8469424 C10.3907738,13.7753424 8.49257965,12.9801424 6.4989469,13.0031824 L6.49897076,13.0032 Z" id="Shape" fill="#00A1E9" fill-rule="nonzero"></path>
        <path d="M65.9703392,16.684 L64.8953029,19.01712 L63.8042807,16.684 L62.7383906,16.6839984 L64.3983064,19.90976 L64.3983064,22.15992 L65.3761544,22.15992 L65.3761544,19.90976 L65.3820239,19.8971984 L67.0352589,16.6839984 L65.9703392,16.684 Z M58.0991205,18.09552 L58.8574517,20.36664 L57.313971,20.36664 L58.0991205,18.09552 Z M59.0904094,21.05672 L59.4557483,22.1596 L60.4805202,22.1596 L58.4627892,16.6836 L57.6793179,16.6836 L55.6682676,22.1596 L56.6939144,22.1596 L57.0751757,21.05672 L59.0904094,21.05672 Z M51.4422784,19.30176 L50.3538012,19.30176 L50.3538012,17.4284 L51.4422784,17.4284 C51.9894517,17.4284 52.3162573,17.906576 52.3162573,18.3688 C52.3162573,18.821016 52.0104084,19.30168 51.4422784,19.30168 L51.4422784,19.30176 Z M51.4975818,16.68384 L49.3683468,16.68384 L49.3683468,22.15984 L50.3537503,22.15984 L50.3537503,20.05456 L51.4975023,20.05456 C52.5599725,20.05456 53.3024052,19.361168 53.3024052,18.3688 C53.3024052,17.376432 52.5599964,16.68392 51.4975023,16.68392 L51.4975818,16.68384 Z M44.3868497,22.15992 L45.373128,22.15992 L45.373128,16.68392 L44.3868497,16.68392 L44.3868497,22.15992 Z M37.4545877,16.684 L37.4545877,22.16 L40.7719538,22.16 L40.7719538,21.413848 L38.4399912,21.413848 L38.4399912,16.684008 L37.4545877,16.684 Z M31.8406509,18.09552 L32.598147,20.36664 L31.0555411,20.36664 L31.8406509,18.09552 Z M32.8319397,21.05672 L33.1972787,22.1596 L34.2212553,22.1596 L32.2035243,16.6836 L31.420888,16.6836 L29.4098378,22.1596 L30.4346097,22.1596 L30.815871,21.05672 L32.8319397,21.05672 Z M39.7695304,5.97912 L35.5421573,5.97912 L35.5421573,4.46504 L40.4441222,4.46504 L40.4441222,3.52208 L35.5421573,3.52208 L35.5421573,1.60352 L33.356852,1.60352 C33.1172057,1.60352 32.9236403,1.804504 32.9236403,2.051544 L32.9236403,3.522104 L28.0560333,3.522104 L28.0560333,4.465064 L32.9236403,4.465064 L32.9236403,5.979144 L28.8152473,5.979144 L28.8152473,6.921224 L36.9983117,6.921224 C36.9983117,6.921224 36.5449863,8.690744 34.300183,10.592504 C32.2891327,9.070904 31.6170859,7.859144 31.6170859,7.859144 L29.4216801,7.859144 C30.3098953,9.397544 31.5718321,10.629384 32.9309573,11.606664 C31.6824614,12.417304 30.0635047,13.198664 27.9703772,13.824184 L27.9703772,14.953064 C27.9703772,14.953064 31.1997807,14.344248 34.3211,12.506104 C37.4474298,14.330024 40.5872006,14.953064 40.5872006,14.953064 L40.5872006,13.884504 C38.5778204,13.153424 36.9857456,12.349464 35.7355795,11.574024 C37.5463678,10.233304 39.1334321,8.413544 39.7693713,5.979144 L39.7695304,5.97912 Z M53.5013947,1.792424 L51.3009783,1.792424 L51.3009783,4.090344 L45.8770438,4.090344 L45.8770438,5.015704 L51.3009783,5.015704 L51.3009783,13.277304 C51.2817053,13.466568 51.1325531,13.613952 50.9456923,13.624 L49.8270724,13.624 L49.8270724,14.5812 L52.6794139,14.5812 C53.1310611,14.5627768 53.4913578,14.188448 53.5014583,13.72448 L53.5014583,5.01568 L54.3946841,5.01568 L54.3946841,4.09032 L53.5014583,4.09032 L53.5013947,1.792424 Z M48.860852,6.574584 C48.7804132,6.410448 48.6161713,6.297392 48.4251271,6.29572 L46.5917517,6.29572 L48.0204675,10.79108 L50.189071,10.79108 L48.860852,6.574584 Z M43.4453479,1.683624 L40.9214742,7.650344 L42.8579234,7.650344 L42.8579234,14.750104 L44.9753877,14.750104 L44.9753877,5.332504 L44.2078387,5.332504 L45.8024586,1.683784 L43.4453479,1.683624 Z M67.9993128,14.424424 L67.2258944,11.813304 C67.1739424,11.646656 67.0231112,11.526064 66.843798,11.526064 L64.7933793,11.526064 L65.3883117,13.531744 L62.9775327,13.531744 L62.9775327,9.646064 L67.7110485,9.646064 L67.7110485,8.721504 L62.9775327,8.721504 L62.9775327,6.892544 L67.7110485,6.892544 L67.7110485,5.967984 L55.8989316,5.967984 L55.8989316,6.892544 L60.6315725,6.892544 L60.6315725,8.721504 L55.8989316,8.721504 L55.8989316,9.646064 L60.6315725,9.646064 L60.6315725,13.531744 L55.8989316,13.531744 L55.8989316,14.456304 L67.9997503,14.456304 L67.989695,14.4244816 L67.9993128,14.424424 Z M58.3600146,3.762024 L65.2537035,3.762024 L65.2537035,5.126184 L67.7164169,5.126204 L67.7164169,3.509944 C67.7155818,3.5065944 67.7155818,3.5049192 67.7155818,3.500732 C67.7155818,3.137284 67.4306817,2.843348 67.0779089,2.837484 L63.0927112,2.837484 L63.0927112,1.565404 L60.5160282,1.565404 L60.5160282,2.837484 L55.8981521,2.837484 L55.8981521,5.126204 L58.3599907,5.126204 L58.3600146,3.762024 Z" id="Shape" fill="#3F3B3A" fill-rule="nonzero"></path>
    </g>
</svg>