<?xml version="1.0" encoding="UTF-8"?>
<svg width="24px" height="24px" viewBox="0 0 24 24" version="1.1" xmlns="http://www.w3.org/2000/svg" xmlns:xlink="http://www.w3.org/1999/xlink">
    <!-- Generator: Sketch 53.2 (72643) - https://sketchapp.com -->
    <title>icon/conciergeLogo/Guest_rounded</title>
    <desc>Created with Sketch.</desc>
    <defs>
        <linearGradient x1="-9.15065116%" y1="15.8432093%" x2="109.150651%" y2="84.1444651%" id="linearGradient-1">
            <stop stop-color="#C19952" offset="0%"></stop>
            <stop stop-color="#A4732A" offset="100%"></stop>
        </linearGradient>
        <linearGradient x1="29.5651633%" y1="5.20702403%" x2="69.121304%" y2="79.2021503%" id="linearGradient-2">
            <stop stop-color="#FFFFFF" offset="0%"></stop>
            <stop stop-color="#FCFCFC" offset="51.51%"></stop>
            <stop stop-color="#F4F4F5" offset="73.89%"></stop>
            <stop stop-color="#EAEAEB" offset="90.59%"></stop>
            <stop stop-color="#E6E7E8" offset="100%"></stop>
        </linearGradient>
        <linearGradient x1="43.901623%" y1="37.1866881%" x2="76.2729089%" y2="60.0672756%" id="linearGradient-3">
            <stop stop-color="#A7A9AC" stop-opacity="0.6" offset="3.285501%"></stop>
            <stop stop-color="#FFFFFF" stop-opacity="0.5" offset="55.66%"></stop>
        </linearGradient>
        <linearGradient x1="0%" y1="49.9782152%" x2="100%" y2="49.9782152%" id="linearGradient-4">
            <stop stop-color="#C19952" offset="0%"></stop>
            <stop stop-color="#A4732A" offset="100%"></stop>
        </linearGradient>
        <linearGradient x1="50.0039707%" y1="99.9832021%" x2="50.0039707%" y2="-0.0267716535%" id="linearGradient-5">
            <stop stop-color="#C19952" stop-opacity="0" offset="0%"></stop>
            <stop stop-color="#895522" offset="100%"></stop>
        </linearGradient>
    </defs>
    <g id="icon/conciergeLogo/Guest" stroke="none" stroke-width="1" fill="none" fill-rule="evenodd">
        <g id="Group-2" fill-rule="nonzero">
            <circle id="Oval" fill="url(#linearGradient-1)" cx="12" cy="12" r="12"></circle>
            <g id="Group" transform="translate(3.609375, 3.609375)">
                <path d="M16.78125,7.85758433 C16.78125,3.52082371 13.02225,0 8.390625,0 C3.759,0 0,3.52082371 0,7.85758433 C0,11.2666359 2.215125,14.1727126 5.7615625,15.3463205 C7.02575,15.7710548 7.5739375,17.0229032 7.227125,18.140625 C8.9611875,17.425283 12.552375,15.4692699 14.789875,12.9432186 C15.9198125,11.6578385 16.78125,9.94772412 16.78125,7.85758433 Z" id="Path" fill="url(#linearGradient-2)"></path>
                <path d="M7.20640215,18.1875 C7.56408006,17.0746971 7.01638577,15.8045281 5.74215824,15.3773916 C5.49625468,15.2987085 5.25035112,15.2087851 5.015625,15.1076212 C5.78686798,15.3998724 6.92696629,15.6921237 8.70417837,15.5572385 C10.6155197,15.4223533 12.3256671,14.9614955 13.96875,13.78125 C11.755618,15.9169324 8.73771067,17.5467953 7.20640215,18.1875 Z" id="Path" fill="url(#linearGradient-3)" style="mix-blend-mode: multiply;"></path>
            </g>
            <g id="Group" transform="translate(6.421875, 9.890625)">
                <path d="M3.67040625,5.68434189e-14 L4.65215625,5.68434189e-14 L2.811375,4.21875 L1.84078125,4.21875 L0,5.68434189e-14 L1.05984375,5.68434189e-14 L2.35396875,3.01181102 L3.67040625,5.68434189e-14 Z M5.2434375,4.21875 L6.2251875,4.21875 L6.2251875,0 L5.2434375,0 L5.2434375,4.21875 Z M11.15625,1.52805118 C11.15625,1.83809055 11.0781563,2.10383858 10.933125,2.33636811 C10.7880938,2.56889764 10.5649688,2.74606299 10.2972188,2.86786417 C10.0183125,2.98966535 9.69478125,3.05610236 9.31546875,3.05610236 L8.4564375,3.05610236 L8.4564375,4.21875 L7.4746875,4.21875 L7.4746875,5.68434189e-14 L9.31546875,5.68434189e-14 C9.69478125,5.68434189e-14 10.0183125,0.0664370079 10.2972188,0.188238189 C10.576125,0.31003937 10.7880938,0.487204724 10.933125,0.719734252 C11.0781563,0.941190945 11.15625,1.21801181 11.15625,1.52805118 Z M10.1633438,1.52805118 C10.1633438,1.29552165 10.08525,1.10728346 9.9290625,0.985482283 C9.772875,0.863681102 9.54975,0.797244094 9.2596875,0.797244094 L8.4564375,0.797244094 L8.4564375,2.25885827 L9.2596875,2.25885827 C9.54975,2.25885827 9.78403125,2.19242126 9.9290625,2.07062008 C10.08525,1.93774606 10.1633438,1.76058071 10.1633438,1.52805118 Z" id="Shape" fill="url(#linearGradient-4)"></path>
                <path d="M2.37872257,2.96751969 L3.67417712,0 L4.65693574,0 L4.63460031,0.0442913386 L3.73001567,0.0442913386 L2.41222571,3.05610236 L2.37872257,2.96751969 Z M9.99510188,2.11491142 C10.1514498,1.99311024 10.2296238,1.80487205 10.2296238,1.57234252 C10.2296238,1.33981299 10.1514498,1.1515748 9.99510188,1.02977362 C9.98393417,1.01870079 9.97276646,1.00762795 9.95043103,0.996555118 C10.0956113,1.1183563 10.1626176,1.29552165 10.1626176,1.52805118 C10.1626176,1.76058071 10.0844436,1.93774606 9.92809561,2.07062008 C9.77174765,2.19242126 9.54839342,2.25885827 9.25803292,2.25885827 L8.50979624,2.25885827 L8.50979624,2.30314961 L9.31387147,2.30314961 C9.61539969,2.30314961 9.83875392,2.2367126 9.99510188,2.11491142 Z M0.055838558,0.0442913386 L1.08326803,0.0442913386 L1.0609326,0 L0,0 L1.8315047,4.21875 L1.86500784,4.21875 L0.055838558,0.0442913386 Z M7.53820533,0.0442913386 L9.38087774,0.0442913386 C9.76057994,0.0442913386 10.0844436,0.110728346 10.3636364,0.232529528 C10.4864812,0.287893701 10.5981583,0.354330709 10.6875,0.431840551 C10.5758229,0.332185039 10.4529781,0.254675197 10.2966301,0.188238189 C10.0174373,0.0664370079 9.69357367,0 9.31387147,0 L7.48236677,0 L7.48236677,4.21875 L7.53820533,4.21875 L7.53820533,0.0442913386 Z M5.30466301,0.0442913386 L6.23158307,0.0442913386 L6.23158307,0 L5.24882445,0 L5.24882445,4.21875 L5.30466301,4.21875 L5.30466301,0.0442913386 Z" id="Shape" fill="url(#linearGradient-5)"></path>
            </g>
        </g>
    </g>
</svg>